<svg width="120" height="60" viewBox="0 0 120 60" fill="none" xmlns="http://www.w3.org/2000/svg">
	<g clip-path="url(#clip0_1_2)">
		<path d="M120 0H0V60H120V0Z" fill="url(#paint0_radial_1_2)"/>
		<path d="M120 16.812C117.049 17.455 114.216 18.436 111.632 19.729C109.212 20.94 106.982 22.432 104.825 23.875C102.139 25.672 99.361 27.53 96.207 28.849C88.335 32.14 78.086 32.213 65.745 29.065C62.149 28.148 58.559 27.039 55.087 25.966C48.967 24.076 42.639 22.121 36.079 21.157C29.518 20.193 22.51 20.254 15.813 21.333C10.258 22.227 4.854 23.834 0 26.021V26.101C10.817 21.198 23.774 19.422 36.063 21.228C42.614 22.191 48.938 24.144 55.054 26.034C58.527 27.107 62.118 28.216 65.717 29.134C71.283 30.554 76.507 31.325 81.245 31.426C81.6 31.434 81.953 31.437 82.303 31.437C87.555 31.437 92.243 30.59 96.251 28.914C99.413 27.592 102.195 25.731 104.885 23.932C107.04 22.491 109.267 21 111.682 19.792C114.251 18.506 117.067 17.53 120.001 16.889L120 16.812Z" fill="url(#paint1_radial_1_2)"/>
		<path d="M120 16.935C119.148 17.156 118.271 17.409 117.366 17.697C116.873 17.854 116.372 18.009 115.888 18.159C114.315 18.646 112.688 19.15 111.17 19.772C110.059 20.227 109.091 20.708 108.212 21.243C106.612 22.214 105.073 23.368 103.585 24.485C101.147 26.314 98.626 28.205 95.718 29.392C88.009 32.562 77.844 32.373 65.505 28.831C63.213 28.173 60.912 27.438 58.687 26.727C57.625 26.388 56.528 26.037 55.447 25.7C49.759 23.925 42.977 22.002 35.809 21.201C30.362 20.596 24.375 20.645 18.014 21.346C11.367 22.079 5.326 23.584 0 25.829V25.911C5.327 23.659 11.373 22.151 18.028 21.417C24.38 20.717 30.358 20.668 35.797 21.272C42.955 22.072 49.73 23.993 55.413 25.767C56.493 26.104 57.591 26.455 58.652 26.794C60.877 27.505 63.179 28.24 65.473 28.899C71.05 30.5 76.22 31.43 80.84 31.663C81.624 31.702 82.396 31.722 83.155 31.722C87.866 31.722 92.098 30.962 95.76 29.457C98.68 28.265 101.205 26.37 103.648 24.538C105.135 23.423 106.672 22.269 108.268 21.301C109.143 20.769 110.106 20.29 111.213 19.837C112.728 19.217 114.28 18.736 115.923 18.227C116.407 18.077 116.908 17.922 117.402 17.765C118.295 17.481 119.16 17.23 120.001 17.012L120 16.935Z" fill="url(#paint2_radial_1_2)"/>
		<path d="M120 17.026C118.971 17.335 117.979 17.673 117.03 18.008C115.886 18.412 114.705 18.718 113.563 19.013C112.619 19.258 111.642 19.51 110.708 19.814C109.475 20.215 108.498 20.648 107.633 21.176C105.915 22.22 104.293 23.576 102.724 24.887C100.415 26.816 98.028 28.81 95.228 29.935C87.54 33.021 77.738 32.583 65.264 28.597C63.652 28.082 62.031 27.529 60.462 26.994C58.757 26.413 56.993 25.811 55.252 25.262C48.196 23.037 41.748 21.723 35.54 21.245C28.94 20.746 22.19 21.276 17.688 21.718C10.911 22.383 5.08 23.683 0 25.668V25.749C5.08 23.759 10.915 22.456 17.699 21.79C22.197 21.348 28.94 20.819 35.531 21.317C41.731 21.795 48.17 23.107 55.218 25.33C56.958 25.879 58.721 26.48 60.426 27.061C61.995 27.596 63.617 28.149 65.23 28.665C72.262 30.912 78.447 32.033 83.886 32.033C88.116 32.033 91.896 31.355 95.27 30C98.085 28.87 100.477 26.871 102.791 24.938C104.358 23.629 105.978 22.275 107.69 21.234C108.548 20.71 109.519 20.28 110.744 19.881C111.675 19.578 112.65 19.326 113.593 19.082C114.738 18.785 115.921 18.479 117.069 18.074C118.006 17.743 118.986 17.41 120.001 17.103L120 17.026Z" fill="url(#paint3_radial_1_2)"/>
		<path d="M120 17.085C118.913 17.457 117.864 17.864 116.852 18.257L116.694 18.318C115.343 18.842 113.906 19.116 112.516 19.382C111.768 19.525 110.994 19.673 110.246 19.857C108.916 20.186 107.932 20.572 107.054 21.11C105.267 22.199 103.609 23.732 102.006 25.215C99.783 27.271 97.485 29.397 94.737 30.478C87.086 33.485 77.644 32.813 65.022 28.363C63.832 27.943 62.631 27.502 61.471 27.076C59.374 26.306 57.206 25.509 55.056 24.824C48.493 22.733 42.021 21.576 35.269 21.288C29.403 21.05 23.398 21.568 17.591 22.069L17.359 22.089C10.498 22.682 4.852 23.796 0 25.536V25.615C4.852 23.871 10.5 22.754 17.37 22.162L17.602 22.142C23.405 21.642 29.406 21.124 35.265 21.361C42.007 21.649 48.469 22.804 55.023 24.892C57.17 25.576 59.338 26.372 61.433 27.142C62.594 27.569 63.794 28.01 64.985 28.43C70.646 30.426 75.565 31.634 80.021 32.124C81.513 32.288 82.962 32.37 84.365 32.37C88.197 32.37 91.687 31.76 94.778 30.544C97.543 29.457 99.848 27.325 102.076 25.264C103.676 23.784 105.331 22.253 107.11 21.169C107.978 20.636 108.954 20.254 110.273 19.928C111.018 19.744 111.79 19.597 112.538 19.454C113.932 19.188 115.374 18.913 116.734 18.385L116.892 18.324C117.891 17.936 118.927 17.535 119.999 17.166L120 17.085Z" fill="url(#paint4_radial_1_2)"/>
		<path d="M120 17.11C119.057 17.472 118.147 17.863 117.266 18.241C116.96 18.372 116.658 18.502 116.358 18.629C114.913 19.241 113.327 19.434 111.794 19.621C111.133 19.701 110.449 19.785 109.785 19.901C108.843 20.065 107.615 20.344 106.477 21.045C104.643 22.165 102.972 23.866 101.357 25.51C99.2 27.705 96.97 29.975 94.249 31.023C84.383 34.82 72.707 31.191 64.783 28.131C63.881 27.783 62.97 27.422 62.089 27.072C59.73 26.137 57.291 25.17 54.862 24.388C48.671 22.395 42.174 21.396 35 21.334C30.599 21.308 26.083 21.699 21.716 22.076C20.173 22.209 18.577 22.347 17.032 22.462C12.013 22.836 5.884 23.524 0 25.44V25.519C5.884 23.598 12.018 22.909 17.041 22.535C18.587 22.42 20.183 22.282 21.726 22.149C26.09 21.772 30.601 21.381 34.999 21.407C42.161 21.469 48.647 22.466 54.827 24.456C57.253 25.237 59.69 26.203 62.047 27.137C62.928 27.486 63.839 27.848 64.742 28.196C70.49 30.415 75.215 31.737 79.614 32.356C81.446 32.614 83.191 32.743 84.86 32.743C88.3 32.743 91.416 32.194 94.288 31.088C97.028 30.033 99.265 27.757 101.428 25.555C103.04 23.914 104.707 22.218 106.532 21.103C107.656 20.411 108.871 20.136 109.804 19.973C110.465 19.858 111.147 19.775 111.807 19.694C113.348 19.506 114.942 19.312 116.401 18.694C116.701 18.567 117.003 18.437 117.309 18.306C118.176 17.934 119.072 17.549 119.999 17.192L120 17.11Z" fill="url(#paint5_radial_1_2)"/>
		<path d="M120 17.104C119.084 17.492 118.201 17.911 117.348 18.317C116.89 18.535 116.457 18.741 116.022 18.94C114.529 19.626 112.837 19.719 111.202 19.809C110.584 19.843 109.945 19.878 109.323 19.944C108.341 20.049 107.064 20.261 105.898 20.978C104.036 22.123 102.368 23.979 100.756 25.773C98.649 28.118 96.47 30.543 93.759 31.564C84.183 35.171 73.115 31.498 64.542 27.895C63.851 27.605 63.153 27.306 62.478 27.018C59.933 25.93 57.301 24.806 54.668 23.949C48.731 22.018 42.21 21.177 34.731 21.377C31.204 21.471 27.588 21.834 24.091 22.184C21.65 22.428 19.126 22.681 16.706 22.833C11.166 23.182 5.419 23.76 0 25.356V25.434C5.419 23.833 11.169 23.255 16.712 22.907C19.135 22.755 21.66 22.502 24.102 22.257C27.597 21.907 31.211 21.545 34.733 21.45C42.199 21.251 48.707 22.09 54.632 24.017C57.261 24.872 59.891 25.996 62.434 27.083C63.109 27.372 63.808 27.67 64.499 27.961C70.594 30.523 77.949 33.119 85.14 33.119C88.086 33.119 91.005 32.683 93.798 31.631C96.531 30.601 98.717 28.169 100.831 25.816C102.44 24.026 104.103 22.174 105.955 21.036C107.104 20.329 108.365 20.12 109.336 20.017C109.955 19.951 110.593 19.916 111.209 19.882C112.855 19.792 114.558 19.698 116.069 19.003C116.504 18.803 116.937 18.597 117.396 18.379C118.235 17.98 119.101 17.568 120.001 17.186L120 17.104Z" fill="url(#paint6_radial_1_2)"/>
		<path d="M120 17.066C119.052 17.502 118.143 17.978 117.265 18.438C116.718 18.725 116.201 18.996 115.686 19.251C114.168 20.004 112.472 19.989 110.676 19.973C110.079 19.968 109.463 19.962 108.861 19.988C107.774 20.035 106.504 20.182 105.319 20.912C103.43 22.077 101.769 24.089 100.162 26.035C98.103 28.53 95.973 31.11 93.267 32.108C83.922 35.553 73.38 31.794 64.3 27.663C63.772 27.423 63.246 27.181 62.722 26.94C59.915 25.649 57.263 24.43 54.471 23.513C48.685 21.612 42.326 20.948 34.459 21.422C31.519 21.599 28.508 21.96 25.595 22.309C22.54 22.675 19.382 23.053 16.376 23.207C10.956 23.484 5.334 23.9 0 25.304V25.381C5.333 23.973 10.959 23.557 16.383 23.279C19.393 23.125 22.554 22.747 25.61 22.381C28.521 22.033 31.53 21.672 34.467 21.495C42.319 21.021 48.664 21.684 54.436 23.58C57.222 24.495 59.871 25.713 62.676 27.003C63.201 27.244 63.727 27.486 64.255 27.726C70.102 30.386 74.587 31.956 78.798 32.816C81.125 33.291 83.313 33.529 85.383 33.529C88.231 33.529 90.855 33.078 93.308 32.174C96.038 31.168 98.174 28.579 100.241 26.075C101.843 24.134 103.5 22.127 105.377 20.969C106.542 20.251 107.795 20.107 108.867 20.06C109.466 20.034 110.081 20.04 110.676 20.045C112.406 20.06 114.195 20.076 115.736 19.312C116.252 19.056 116.769 18.785 117.317 18.498C118.179 18.046 119.071 17.579 120.001 17.15L120 17.066Z" fill="url(#paint7_radial_1_2)"/>
		<path d="M120 16.999C118.985 17.498 118.019 18.052 117.089 18.586C116.485 18.933 115.914 19.261 115.35 19.561C113.82 20.377 112.056 20.255 110.188 20.125C109.6 20.084 108.992 20.042 108.398 20.032C107.27 20.014 105.953 20.096 104.74 20.846C102.828 22.028 101.252 24.098 99.584 26.289C97.568 28.937 95.483 31.675 92.778 32.651C83.629 35.951 73.569 32.091 64.059 27.429C63.662 27.234 63.266 27.039 62.871 26.844C59.952 25.404 57.194 24.043 54.276 23.075C48.682 21.218 42.299 20.707 34.19 21.466C31.677 21.701 29.105 22.068 26.618 22.423C23.109 22.924 19.479 23.441 16.05 23.578C10.301 23.807 4.961 24.129 0 25.277V25.353C4.96 24.202 10.302 23.88 16.054 23.651C19.489 23.514 23.122 22.996 26.634 22.495C29.12 22.14 31.69 21.774 34.201 21.539C42.294 20.781 48.662 21.291 54.241 23.143C57.153 24.109 59.907 25.468 62.823 26.907C63.218 27.102 63.614 27.297 64.012 27.492C67.957 29.426 73.156 31.805 78.39 33.046C80.923 33.647 83.292 33.947 85.524 33.947C88.128 33.947 90.545 33.538 92.817 32.718C95.548 31.733 97.641 28.985 99.664 26.328C101.328 24.142 102.899 22.078 104.798 20.904C105.988 20.169 107.284 20.088 108.397 20.105C108.988 20.115 109.594 20.157 110.181 20.198C111.982 20.323 113.845 20.453 115.403 19.622C115.968 19.321 116.539 18.993 117.144 18.645C118.058 18.12 119.006 17.576 120.001 17.084L120 16.999Z" fill="url(#paint8_radial_1_2)"/>
		<path d="M120 16.906C118.896 17.478 117.855 18.128 116.855 18.754C116.214 19.155 115.609 19.534 115.015 19.873C113.48 20.75 111.656 20.517 109.725 20.272C109.138 20.197 108.531 20.12 107.936 20.077C106.767 19.993 105.403 20.011 104.162 20.781C102.23 21.978 100.669 24.194 99.015 26.539C97.039 29.342 94.996 32.24 92.287 33.196C83.306 36.363 73.296 32.185 63.817 27.197C63.527 27.045 63.238 26.892 62.95 26.74C59.943 25.152 57.102 23.652 54.079 22.639C48.571 20.793 42.354 20.445 33.918 21.512C31.731 21.789 29.495 22.164 27.333 22.526C23.468 23.174 19.472 23.844 15.72 23.951L15.699 23.952C10.458 24.101 5.099 24.255 0 25.282V25.357C5.097 24.327 10.459 24.173 15.704 24.024L15.725 24.023C19.484 23.916 23.485 23.245 27.354 22.596C29.515 22.234 31.75 21.859 33.935 21.582C42.352 20.517 48.555 20.863 54.046 22.704C57.061 23.714 59.898 25.212 62.901 26.798C63.189 26.95 63.478 27.103 63.768 27.255C67.968 29.465 72.941 31.908 77.982 33.272C80.698 34.007 83.226 34.375 85.6 34.375C87.987 34.375 90.218 34.003 92.326 33.26C95.063 32.295 97.113 29.386 99.096 26.573C100.745 24.234 102.302 22.025 104.219 20.837C105.435 20.083 106.776 20.066 107.928 20.149C108.519 20.191 109.125 20.268 109.71 20.343C111.66 20.591 113.503 20.826 115.068 19.931C115.664 19.591 116.27 19.212 116.912 18.81C117.895 18.195 118.917 17.556 120 16.993V16.906Z" fill="url(#paint9_radial_1_2)"/>
		<path d="M120 16.795C118.768 17.456 117.628 18.227 116.583 18.935C115.919 19.385 115.291 19.81 114.679 20.183C113.145 21.118 111.266 20.776 109.278 20.414C108.686 20.306 108.074 20.195 107.474 20.12C106.264 19.97 104.856 19.923 103.584 20.713C101.635 21.924 100.09 24.283 98.455 26.782C96.518 29.741 94.514 32.801 91.799 33.737C82.542 36.929 72.378 31.914 63.578 26.962L62.983 26.627C59.905 24.892 56.997 23.253 53.886 22.2C47.045 19.884 39.818 20.574 33.65 21.555C31.722 21.862 29.752 22.244 27.847 22.614C23.694 23.42 19.399 24.253 15.394 24.323C15.041 24.329 14.688 24.335 14.334 24.341C9.557 24.42 4.681 24.502 0 25.307V25.381C4.68 24.575 9.558 24.492 14.336 24.413C14.689 24.407 15.043 24.401 15.396 24.395C19.411 24.325 23.71 23.491 27.869 22.684C29.773 22.315 31.742 21.933 33.669 21.626C39.822 20.647 47.032 19.958 53.85 22.266C56.952 23.316 59.856 24.952 62.93 26.685L63.525 27.02C70.415 30.897 78.139 34.812 85.624 34.812C87.721 34.812 89.8 34.504 91.836 33.802C94.581 32.856 96.592 29.784 98.537 26.814C100.168 24.323 101.709 21.97 103.642 20.769C104.886 19.996 106.271 20.043 107.461 20.19C108.058 20.264 108.668 20.375 109.258 20.483C111.269 20.849 113.168 21.195 114.736 20.238C115.35 19.864 115.978 19.438 116.643 18.987C117.705 18.268 118.814 17.517 120 16.874V16.795Z" fill="url(#paint10_radial_1_2)"/>
		<path d="M120 16.662C118.642 17.407 117.413 18.304 116.285 19.127C115.606 19.622 114.965 20.09 114.344 20.493C112.814 21.486 110.885 21.034 108.843 20.556C108.242 20.416 107.621 20.27 107.012 20.164C105.762 19.947 104.309 19.835 103.006 20.647C101.042 21.87 99.515 24.373 97.899 27.023C95.998 30.139 94.033 33.362 91.309 34.28C82.219 37.343 72.506 32.229 63.337 26.728L62.978 26.512C59.842 24.629 56.879 22.851 53.692 21.762C50.73 20.749 47.5 20.29 43.816 20.356C40.853 20.41 37.538 20.805 33.382 21.599C31.665 21.927 29.912 22.315 28.217 22.69C23.822 23.662 19.278 24.667 15.068 24.694C14.435 24.698 13.801 24.7 13.167 24.702C8.785 24.719 4.319 24.737 0 25.354V25.428C4.318 24.809 8.785 24.792 13.166 24.776C13.8 24.774 14.434 24.772 15.067 24.767C19.289 24.74 23.839 23.734 28.24 22.761C29.934 22.386 31.687 21.999 33.402 21.671C39.677 20.471 46.99 19.551 53.654 21.83C56.831 22.916 59.79 24.691 62.921 26.571L63.28 26.787C70.557 31.152 78.176 35.274 85.568 35.274C87.512 35.274 89.441 34.989 91.344 34.348C94.099 33.42 96.073 30.184 97.981 27.056C99.593 24.414 101.115 21.918 103.062 20.705C104.335 19.912 105.762 20.023 106.991 20.236C107.597 20.341 108.216 20.486 108.815 20.626C110.882 21.11 112.833 21.567 114.401 20.55C115.024 20.146 115.666 19.677 116.346 19.181C117.457 18.37 118.666 17.488 119.999 16.751L120 16.662Z" fill="url(#paint11_radial_1_2)"/>
		<path d="M120 16.508C118.51 17.338 117.181 18.379 115.968 19.329C115.281 19.867 114.633 20.374 114.008 20.804C112.485 21.853 110.508 21.292 108.415 20.699C107.803 20.525 107.17 20.346 106.548 20.209C105.259 19.926 103.761 19.748 102.427 20.581C100.449 21.816 98.942 24.461 97.346 27.262C95.481 30.537 93.552 33.923 90.818 34.823C81.887 37.763 72.608 32.561 63.095 26.494L62.943 26.397C59.758 24.366 56.75 22.447 53.495 21.324C46.956 19.066 39.833 20.143 33.11 21.643C31.57 21.987 29.998 22.378 28.479 22.756C23.877 23.901 19.12 25.085 14.738 25.065C13.873 25.061 12.991 25.052 12.139 25.044C8.106 25.005 3.998 24.965 0 25.424V25.498C3.996 25.038 8.104 25.078 12.138 25.118C12.99 25.126 13.872 25.135 14.738 25.139C14.775 25.139 14.812 25.139 14.849 25.139C19.212 25.139 23.937 23.963 28.506 22.826C30.025 22.448 31.596 22.057 33.135 21.714C39.842 20.217 46.946 19.143 53.458 21.391C56.702 22.51 59.705 24.426 62.885 26.454L63.037 26.551C67.378 29.319 72.013 32.171 76.761 33.955C79.912 35.139 82.813 35.729 85.52 35.729C87.384 35.729 89.156 35.449 90.854 34.89C93.621 33.979 95.558 30.579 97.43 27.292C99.021 24.499 100.523 21.861 102.484 20.638C103.786 19.825 105.257 20.001 106.523 20.279C107.141 20.415 107.773 20.594 108.383 20.767C110.502 21.368 112.504 21.935 114.068 20.859C114.695 20.427 115.344 19.919 116.032 19.38C117.227 18.444 118.536 17.42 120 16.597V16.508Z" fill="url(#paint12_radial_1_2)"/>
		<path d="M120 16.34C118.369 17.254 116.937 18.452 115.637 19.539C114.947 20.116 114.296 20.661 113.672 21.115C112.157 22.219 110.135 21.55 107.993 20.843C107.367 20.636 106.72 20.422 106.084 20.254C104.756 19.904 103.214 19.661 101.848 20.515C99.857 21.76 98.371 24.548 96.797 27.499C94.966 30.933 93.073 34.484 90.328 35.366C86.206 36.691 81.649 36.282 76.397 34.117C71.837 32.236 67.388 29.328 62.853 26.261C59.645 24.091 56.614 22.042 53.299 20.887C50.368 19.865 47.123 19.501 43.377 19.773C39.637 20.045 35.781 20.939 32.84 21.689C31.451 22.043 30.034 22.435 28.664 22.814C23.88 24.138 18.933 25.509 14.41 25.438C13.348 25.422 12.266 25.396 11.219 25.37C7.49401 25.28 3.70601 25.19 -0.000991821 25.514V25.587C3.70401 25.261 7.49201 25.352 11.216 25.442C12.263 25.467 13.345 25.493 14.408 25.51C18.947 25.579 23.902 24.208 28.694 22.882C30.064 22.503 31.48 22.111 32.868 21.757C40.742 19.752 47.223 18.847 53.262 20.953C56.565 22.104 59.59 24.15 62.793 26.316C67.332 29.386 71.785 32.297 76.354 34.181C79.618 35.527 82.616 36.197 85.41 36.197C87.133 36.197 88.779 35.942 90.362 35.433C93.142 34.539 95.043 30.974 96.881 27.527C98.45 24.584 99.932 21.805 101.904 20.571C103.236 19.738 104.749 19.977 106.054 20.322C106.687 20.489 107.332 20.702 107.957 20.909C110.126 21.626 112.175 22.303 113.733 21.168C114.359 20.711 115.012 20.166 115.703 19.588C116.984 18.517 118.396 17.336 119.999 16.43L120 16.34Z" fill="url(#paint13_radial_1_2)"/>
		<path d="M120 16.161C118.22 17.155 116.683 18.523 115.297 19.756C114.608 20.369 113.957 20.949 113.337 21.426C111.832 22.585 109.766 21.809 107.578 20.988C106.937 20.747 106.274 20.498 105.621 20.299C104.254 19.881 102.668 19.573 101.27 20.449C99.267 21.705 97.802 24.634 96.252 27.735C94.455 31.329 92.596 35.045 89.839 35.91C85.731 37.199 81.203 36.687 75.996 34.345C71.26 32.215 66.466 28.785 62.613 26.029C59.594 23.869 56.473 21.636 53.106 20.451C46.472 18.115 39.028 19.889 32.572 21.734C31.314 22.094 30.031 22.485 28.79 22.864C23.844 24.373 18.728 25.933 14.084 25.812C12.853 25.78 11.598 25.732 10.384 25.685C6.939 25.553 3.44 25.419 0 25.63V25.703C3.437 25.492 6.936 25.626 10.379 25.758C11.593 25.805 12.849 25.853 14.081 25.885C14.253 25.89 14.425 25.892 14.599 25.892C19.122 25.892 24.052 24.389 28.824 22.933C30.064 22.555 31.347 22.163 32.604 21.804C39.043 19.963 46.466 18.194 53.069 20.518C56.423 21.698 59.539 23.927 62.552 26.083C66.408 28.841 71.206 32.275 75.951 34.409C79.315 35.922 82.398 36.675 85.27 36.675C86.866 36.675 88.397 36.443 89.874 35.979C92.668 35.102 94.534 31.371 96.339 27.763C97.885 24.671 99.346 21.751 101.329 20.507C102.691 19.653 104.247 19.957 105.59 20.367C106.239 20.565 106.901 20.814 107.54 21.054C109.758 21.886 111.852 22.673 113.403 21.479C114.026 21 114.677 20.419 115.368 19.805C116.735 18.588 118.251 17.239 120.002 16.252V16.161H120Z" fill="url(#paint14_radial_1_2)"/>
		<path d="M120 15.973C118.062 17.04 116.42 18.59 114.949 19.98C114.263 20.627 113.616 21.239 113.002 21.738C111.508 22.951 109.399 22.069 107.167 21.136C106.509 20.861 105.828 20.576 105.158 20.345C103.753 19.86 102.123 19.486 100.692 20.385C98.678 21.65 97.235 24.721 95.708 27.971C93.944 31.725 92.12 35.607 89.349 36.455C85.261 37.707 80.77 37.095 75.617 34.585C71.078 32.374 66.674 29.047 62.415 25.83L62.371 25.797C59.535 23.655 56.321 21.227 52.91 20.015C50.004 18.982 46.744 18.713 42.943 19.194C39.317 19.652 35.529 20.759 32.302 21.781C31.159 22.143 29.994 22.531 28.868 22.907C23.774 24.605 18.508 26.36 13.756 26.186C12.378 26.135 10.972 26.061 9.612 25.99C6.425 25.82 3.191 25.65 0 25.763V25.836C3.188 25.722 6.42 25.892 9.605 26.06C10.966 26.132 12.372 26.206 13.751 26.256C18.524 26.431 23.8 24.673 28.903 22.972C30.029 22.597 31.194 22.208 32.336 21.847C39.16 19.685 46.367 17.768 52.872 20.08C56.269 21.286 59.477 23.71 62.308 25.848L62.352 25.881C66.614 29.101 71.021 32.43 75.569 34.645C79.011 36.322 82.162 37.155 85.097 37.155C86.577 37.155 88.002 36.943 89.382 36.521C92.191 35.661 94.022 31.764 95.793 27.995C97.316 24.754 98.754 21.693 100.748 20.44C102.141 19.565 103.74 19.934 105.12 20.41C105.787 20.64 106.466 20.924 107.122 21.198C108.589 21.811 110.003 22.403 111.236 22.402C111.906 22.402 112.523 22.227 113.066 21.787C113.683 21.287 114.331 20.674 115.018 20.025C116.471 18.653 118.092 17.122 119.999 16.062L120 15.973Z" fill="url(#paint15_radial_1_2)"/>
		<path d="M120 15.79C119.991 15.795 119.981 15.8 119.972 15.805C117.862 16.944 116.126 18.679 114.594 20.209C113.914 20.888 113.272 21.53 112.666 22.048C111.184 23.315 109.034 22.328 106.757 21.283C106.081 20.973 105.382 20.652 104.693 20.388C103.249 19.836 101.576 19.396 100.113 20.317C98.088 21.592 96.668 24.803 95.165 28.202C93.434 32.117 91.644 36.165 88.859 36.997C84.841 38.197 80.451 37.52 75.438 34.928C71.018 32.642 66.732 29.228 62.587 25.927L62.13 25.563C58.75 22.872 55.911 20.723 52.715 19.577C46.264 17.263 38.961 19.418 32.033 21.825C30.993 22.186 29.933 22.569 28.908 22.94C23.68 24.831 18.273 26.786 13.428 26.557C11.92 26.486 10.38 26.383 8.891 26.283C5.945 26.085 2.957 25.885 0 25.917V25.99C2.954 25.958 5.939 26.158 8.883 26.355C10.373 26.455 11.913 26.558 13.422 26.629C13.685 26.642 13.95 26.647 14.216 26.647C18.875 26.647 23.99 24.797 28.946 23.005C29.971 22.634 31.03 22.251 32.069 21.89C38.978 19.49 46.26 17.34 52.676 19.642C55.858 20.783 58.691 22.927 62.064 25.613L62.522 25.977C66.67 29.281 70.96 32.698 75.388 34.988C78.819 36.763 81.962 37.644 84.896 37.644C86.271 37.644 87.6 37.45 88.891 37.065C91.716 36.221 93.513 32.157 95.251 28.226C96.75 24.837 98.165 21.635 100.17 20.374C101.594 19.478 103.235 19.911 104.653 20.454C105.339 20.716 106.036 21.036 106.711 21.346C108.236 22.046 109.705 22.72 110.968 22.72C111.617 22.72 112.213 22.542 112.733 22.097C113.342 21.577 113.985 20.934 114.666 20.253C116.187 18.733 117.911 17.011 119.999 15.877L120 15.79Z" fill="url(#paint16_radial_1_2)"/>
		<path d="M120 15.598C119.88 15.66 119.761 15.724 119.642 15.791C117.503 16.999 115.767 18.829 114.236 20.443C113.563 21.152 112.928 21.822 112.331 22.358C110.861 23.678 108.671 22.587 106.352 21.433C105.657 21.087 104.939 20.729 104.23 20.433C102.748 19.813 101.032 19.307 99.535 20.251C97.5 21.535 96.103 24.886 94.624 28.434C92.925 32.51 91.168 36.725 88.369 37.54C84.414 38.691 80.118 37.95 75.236 35.273C70.927 32.911 66.752 29.408 62.715 26.02C62.439 25.788 62.163 25.557 61.889 25.327C58.67 22.63 55.742 20.303 52.52 19.137C49.634 18.092 46.359 17.919 42.508 18.609C38.972 19.242 35.254 20.55 31.764 21.868C30.817 22.226 29.852 22.602 28.919 22.966C23.565 25.053 18.03 27.212 13.102 26.928C11.479 26.834 9.819 26.7 8.215 26.569C5.492 26.349 2.736 26.125 0 26.089V26.162C2.732 26.198 5.486 26.421 8.204 26.642C9.809 26.772 11.469 26.907 13.094 27.001C18.047 27.287 23.594 25.124 28.959 23.032C29.892 22.668 30.857 22.292 31.803 21.935C39.082 19.186 46.141 16.909 52.481 19.205C55.688 20.366 58.609 22.687 61.821 25.378C62.095 25.608 62.371 25.839 62.647 26.071C66.688 29.461 70.866 32.967 75.183 35.334C78.602 37.208 81.736 38.138 84.671 38.138C85.95 38.138 87.191 37.961 88.4 37.609C91.241 36.782 93.005 32.55 94.711 28.458C96.185 24.92 97.578 21.579 99.592 20.309C101.047 19.391 102.731 19.89 104.186 20.498C104.892 20.793 105.609 21.15 106.302 21.495C107.881 22.281 109.401 23.038 110.69 23.038C111.322 23.038 111.898 22.856 112.399 22.407C112.999 21.869 113.635 21.198 114.309 20.487C115.836 18.877 117.567 17.052 119.694 15.851C119.796 15.794 119.897 15.739 119.999 15.685L120 15.598Z" fill="url(#paint17_radial_1_2)"/>
		<path d="M120 15.404C119.769 15.52 119.538 15.645 119.309 15.78C117.14 17.058 115.405 18.984 113.874 20.683C113.21 21.42 112.582 22.117 111.995 22.669C110.538 24.041 108.308 22.848 105.948 21.585C105.233 21.203 104.495 20.807 103.765 20.477C102.245 19.79 100.485 19.218 98.956 20.184C96.911 21.476 95.538 24.968 94.084 28.664C92.417 32.902 90.694 37.284 87.879 38.082C83.983 39.187 79.775 38.382 75.013 35.621C70.808 33.182 66.738 29.589 62.803 26.113C62.416 25.771 62.031 25.431 61.647 25.094C58.47 22.299 55.576 19.888 52.325 18.701C46.021 16.396 38.875 18.906 31.494 21.913C30.631 22.265 29.753 22.632 28.903 22.987C23.432 25.274 17.775 27.639 12.773 27.299C11.046 27.182 9.28 27.013 7.571 26.85C5.063 26.612 2.525 26.371 0 26.279V26.352C2.521 26.444 5.055 26.685 7.56 26.924C9.269 27.087 11.037 27.256 12.765 27.373C13.093 27.395 13.423 27.406 13.757 27.406C18.533 27.406 23.821 25.195 28.946 23.053C29.796 22.698 30.674 22.331 31.536 21.979C38.895 18.98 46.019 16.477 52.286 18.768C55.521 19.95 58.409 22.355 61.579 25.144C61.962 25.481 62.348 25.821 62.735 26.163C66.674 29.641 70.746 33.238 74.96 35.681C78.366 37.656 81.492 38.635 84.427 38.635C85.618 38.635 86.778 38.474 87.911 38.152C90.769 37.341 92.499 32.942 94.173 28.687C95.623 25.002 96.992 21.521 99.015 20.242C100.502 19.302 102.228 19.866 103.721 20.541C104.447 20.869 105.185 21.264 105.898 21.646C107.528 22.518 109.096 23.357 110.407 23.357C111.024 23.357 111.584 23.171 112.067 22.716C112.656 22.161 113.285 21.463 113.95 20.725C115.477 19.031 117.207 17.11 119.365 15.838C119.577 15.713 119.789 15.598 120.001 15.49L120 15.404Z" fill="url(#paint18_radial_1_2)"/>
		<path d="M120 15.218C117.302 16.506 115.223 18.93 113.509 20.928C112.854 21.691 112.236 22.412 111.66 22.98C110.216 24.405 107.947 23.11 105.546 21.739C104.811 21.319 104.052 20.886 103.301 20.522C101.743 19.767 99.94 19.129 98.378 20.119C96.323 21.42 94.974 25.051 93.545 28.895C91.91 33.295 90.219 37.845 87.389 38.626C83.548 39.687 79.421 38.819 74.773 35.972C70.665 33.456 66.696 29.77 62.857 26.206C62.371 25.754 61.887 25.305 61.406 24.861C58.385 22.073 55.402 19.47 52.13 18.264C49.26 17.205 45.971 17.128 42.073 18.029C38.434 18.87 34.565 20.498 31.225 21.959C30.44 22.302 29.64 22.659 28.867 23.004C23.286 25.494 17.514 28.069 12.445 27.673C10.624 27.531 8.76 27.327 6.958 27.129C4.653 26.877 2.323 26.623 0 26.487V26.56C2.318 26.696 4.644 26.95 6.945 27.202C8.749 27.399 10.613 27.604 12.436 27.746C12.79 27.774 13.146 27.787 13.507 27.787C18.336 27.787 23.707 25.391 28.913 23.068C29.686 22.723 30.485 22.367 31.27 22.023C38.705 18.772 45.893 16.043 52.091 18.331C55.347 19.531 58.322 22.128 61.336 24.91C61.817 25.354 62.301 25.803 62.787 26.254C66.629 29.821 70.602 33.51 74.717 36.031C78.109 38.108 81.226 39.138 84.162 39.137C85.272 39.137 86.357 38.99 87.42 38.696C90.295 37.902 91.992 33.334 93.634 28.917C95.058 25.084 96.404 21.463 98.436 20.177C99.954 19.216 101.723 19.844 103.254 20.586C104.002 20.948 104.76 21.381 105.494 21.8C107.171 22.757 108.784 23.678 110.116 23.678C110.72 23.678 111.266 23.489 111.734 23.027C112.313 22.456 112.932 21.734 113.587 20.97C115.284 18.991 117.341 16.594 120.002 15.308V15.218H120Z" fill="url(#paint19_radial_1_2)"/>
		<path d="M120 15.023C117.107 16.332 114.927 18.995 113.143 21.177C112.499 21.964 111.89 22.708 111.326 23.291C110.972 23.657 110.56 23.859 110.069 23.911C108.713 24.053 106.981 23.005 105.147 21.896C104.391 21.439 103.61 20.966 102.837 20.568C101.241 19.746 99.395 19.042 97.8 20.054C95.736 21.363 94.411 25.134 93.008 29.126C91.405 33.688 89.747 38.406 86.9 39.171C83.109 40.19 79.059 39.259 74.517 36.326C70.501 33.732 66.627 29.953 62.88 26.298C62.304 25.736 61.732 25.179 61.164 24.629C58.181 21.745 55.23 19.054 51.934 17.828C49.072 16.762 45.775 16.733 41.855 17.74C38.249 18.666 34.493 20.355 30.956 22.005C30.243 22.338 29.516 22.682 28.814 23.015C23.128 25.711 17.248 28.5 12.117 28.046C10.211 27.878 8.25801 27.637 6.36901 27.404C4.25901 27.144 2.12701 26.882 -0.000991821 26.712V26.785C2.12201 26.955 4.24901 27.216 6.35401 27.476C8.24401 27.709 10.198 27.95 12.106 28.118C12.482 28.151 12.862 28.167 13.245 28.167C18.125 28.167 23.576 25.582 28.86 23.077C29.562 22.744 30.288 22.4 31.001 22.067C38.797 18.43 45.749 15.605 51.894 17.893C55.172 19.113 58.116 21.797 61.092 24.675C61.66 25.224 62.232 25.782 62.808 26.344C66.558 30.002 70.435 33.784 74.458 36.382C77.834 38.563 80.943 39.643 83.879 39.642C84.915 39.642 85.931 39.507 86.928 39.239C89.82 38.461 91.485 33.725 93.095 29.145C94.494 25.164 95.815 21.405 97.856 20.11C99.406 19.127 101.218 19.82 102.786 20.628C103.556 21.025 104.336 21.497 105.09 21.953C106.94 23.072 108.688 24.129 110.079 23.983C110.596 23.929 111.027 23.717 111.397 23.335C111.964 22.75 112.573 22.005 113.218 21.216C114.986 19.055 117.143 16.418 119.998 15.11V15.023H120Z" fill="url(#paint20_radial_1_2)"/>
		<path d="M120 14.832C116.904 16.148 114.627 19.059 112.774 21.43C112.141 22.24 111.543 23.005 110.99 23.601C110.642 23.976 110.236 24.183 109.749 24.233C108.386 24.373 106.619 23.246 104.748 22.053C103.971 21.557 103.167 21.045 102.372 20.611C100.739 19.721 98.85 18.951 97.221 19.986C95.148 21.303 93.847 25.213 92.47 29.353C90.898 34.078 89.273 38.964 86.41 39.713C82.667 40.692 78.688 39.699 74.248 36.679C70.319 34.006 66.536 30.133 62.877 26.387C62.234 25.729 61.57 25.049 60.923 24.394C57.977 21.413 55.057 18.635 51.74 17.389C48.885 16.316 45.581 16.335 41.639 17.447C38.064 18.456 34.269 20.273 30.688 22.048C30.042 22.368 29.384 22.699 28.747 23.018C22.961 25.923 16.977 28.927 11.79 28.417C9.806 28.222 7.771 27.943 5.804 27.673C3.88 27.41 1.94 27.145 0 26.95V27.023C1.934 27.218 3.87 27.482 5.787 27.745C7.756 28.015 9.792 28.294 11.778 28.489C12.174 28.528 12.573 28.547 12.978 28.547C17.906 28.547 23.435 25.771 28.796 23.08C29.432 22.761 30.09 22.43 30.736 22.11C38.605 18.21 45.614 15.167 51.7 17.455C54.999 18.694 57.911 21.466 60.85 24.439C61.496 25.093 62.161 25.773 62.803 26.431C66.465 30.18 70.251 34.056 74.187 36.734C77.547 39.019 80.646 40.15 83.583 40.15C84.551 40.15 85.502 40.027 86.438 39.782C89.348 39.021 90.98 34.116 92.558 29.372C93.931 25.244 95.228 21.346 97.278 20.043C98.86 19.038 100.714 19.797 102.319 20.671C103.112 21.103 103.914 21.614 104.69 22.109C106.577 23.313 108.359 24.449 109.761 24.305C110.274 24.252 110.7 24.036 111.064 23.644C111.619 23.045 112.218 22.279 112.852 21.468C114.688 19.119 116.944 16.235 120 14.918V14.832Z" fill="url(#paint21_radial_1_2)"/>
		<path d="M120 14.652C119.308 14.927 118.628 15.295 117.957 15.756C115.668 17.327 113.859 19.745 112.405 21.689C111.783 22.52 111.197 23.304 110.655 23.914C110.314 24.298 109.913 24.509 109.43 24.558C108.061 24.697 106.258 23.491 104.35 22.214C103.551 21.679 102.725 21.127 101.907 20.658C100.334 19.757 98.314 18.858 96.642 19.922C94.56 21.247 93.283 25.296 91.932 29.583C90.391 34.471 88.798 39.525 85.919 40.257C82.22 41.197 78.309 40.144 73.965 37.035C70.119 34.284 66.423 30.315 62.848 26.477C62.135 25.711 61.397 24.919 60.68 24.161C57.77 21.084 54.881 18.217 51.543 16.952C48.695 15.872 45.383 15.939 41.42 17.157C37.871 18.248 34.19 20.114 30.417 22.093C29.834 22.399 29.249 22.708 28.665 23.018C22.782 26.134 16.7 29.356 11.461 28.789C9.405 28.566 7.295 28.249 5.254 27.942C3.513 27.68 1.757 27.416 0 27.204V27.277C1.751 27.488 3.502 27.751 5.238 28.012C7.28 28.319 9.391 28.637 11.449 28.86C11.862 28.905 12.279 28.926 12.702 28.926C17.675 28.926 23.281 25.956 28.717 23.077C29.301 22.768 29.885 22.458 30.469 22.152C34.238 20.176 37.914 18.311 41.455 17.223C45.393 16.012 48.681 15.945 51.505 17.016C54.824 18.274 57.705 21.133 60.608 24.203C61.325 24.961 62.062 25.753 62.775 26.518C66.352 30.359 70.051 34.331 73.904 37.087C77.246 39.478 80.335 40.66 83.273 40.659C84.178 40.659 85.069 40.547 85.948 40.323C88.876 39.579 90.476 34.504 92.022 29.597C93.369 25.322 94.642 21.285 96.7 19.975C98.314 18.948 100.211 19.772 101.853 20.713C102.669 21.18 103.493 21.732 104.291 22.266C106.215 23.554 108.034 24.77 109.442 24.626C109.952 24.574 110.373 24.354 110.73 23.952C111.273 23.34 111.861 22.554 112.483 21.722C114.386 19.179 116.736 16.038 119.999 14.728L120 14.652Z" fill="url(#paint22_radial_1_2)"/>
		<path d="M120 14.475C119.189 14.774 118.395 15.199 117.615 15.753C115.295 17.4 113.487 19.922 112.034 21.949C111.425 22.799 110.849 23.602 110.32 24.223C109.985 24.617 109.589 24.831 109.111 24.88C107.735 25.019 105.899 23.734 103.955 22.375C103.134 21.801 102.285 21.207 101.443 20.702C99.835 19.737 97.77 18.769 96.065 19.856C93.974 21.189 92.723 25.377 91.398 29.811C89.888 34.862 88.328 40.086 85.431 40.801C81.773 41.704 77.927 40.59 73.674 37.394C69.907 34.563 66.294 30.499 62.801 26.568C62.025 25.694 61.222 24.791 60.441 23.929C57.68 20.881 54.705 17.798 51.351 16.516C48.509 15.428 45.19 15.544 41.206 16.868C37.685 18.039 33.967 20.03 30.151 22.139C29.627 22.429 29.102 22.721 28.577 23.014C22.601 26.344 16.422 29.787 11.136 29.163C9.014 28.912 6.834 28.555 4.726 28.209C3.158 27.952 1.58 27.693 0 27.474V27.548C1.573 27.767 3.145 28.024 4.705 28.28C6.814 28.626 8.996 28.983 11.12 29.234C11.548 29.284 11.981 29.309 12.42 29.309C17.437 29.309 23.119 26.143 28.627 23.073C29.152 22.781 29.677 22.488 30.201 22.198C38.495 17.612 45.315 14.287 51.308 16.58C54.642 17.855 57.61 20.93 60.364 23.97C61.144 24.831 61.947 25.735 62.723 26.608C66.219 30.542 69.835 34.61 73.608 37.445C76.931 39.942 80.01 41.175 82.949 41.175C83.795 41.175 84.631 41.073 85.456 40.869C88.403 40.141 89.97 34.897 91.485 29.826C92.806 25.405 94.054 21.229 96.121 19.911C97.767 18.861 99.706 19.751 101.386 20.759C102.225 21.263 103.073 21.856 103.893 22.429C105.853 23.8 107.703 25.095 109.121 24.952C109.627 24.901 110.044 24.676 110.395 24.264C110.926 23.64 111.503 22.836 112.113 21.985C113.563 19.963 115.367 17.447 117.675 15.807C118.435 15.267 119.209 14.85 119.999 14.555L120 14.475Z" fill="url(#paint23_radial_1_2)"/>
		<path d="M120 14.304C119.068 14.62 118.16 15.102 117.272 15.754C114.922 17.478 113.115 20.105 111.663 22.215C111.066 23.083 110.502 23.902 109.985 24.534C109.656 24.937 109.265 25.156 108.79 25.203C107.41 25.342 105.539 23.979 103.559 22.537C102.716 21.922 101.843 21.287 100.977 20.745C99.333 19.716 97.223 18.678 95.485 19.788C93.385 21.129 92.159 25.455 90.86 30.036C89.382 35.251 87.853 40.644 84.939 41.342C81.32 42.21 77.535 41.035 73.369 37.751C69.677 34.841 66.145 30.679 62.729 26.655C61.896 25.673 61.034 24.658 60.197 23.693C57.47 20.552 54.525 17.377 51.153 16.076C48.317 14.981 44.991 15.144 40.986 16.575C37.486 17.825 33.885 19.854 29.879 22.182C29.411 22.454 28.942 22.728 28.473 23.002C22.408 26.548 16.136 30.215 10.805 29.533C8.622 29.253 6.377 28.856 4.205 28.472C2.81 28.225 1.405 27.977 -0.0019989 27.756V27.83C1.398 28.05 2.796 28.297 4.185 28.543C6.357 28.928 8.604 29.325 10.79 29.605C11.232 29.662 11.679 29.688 12.132 29.688C17.191 29.688 22.946 26.323 28.527 23.06C28.996 22.786 29.464 22.512 29.932 22.24C36.851 18.219 44.692 13.662 51.111 16.141C54.462 17.434 57.399 20.601 60.119 23.734C60.956 24.698 61.818 25.713 62.651 26.695C66.069 30.723 69.604 34.887 73.302 37.802C76.605 40.406 79.673 41.691 82.613 41.691C83.405 41.691 84.189 41.598 84.964 41.412C87.929 40.701 89.464 35.287 90.948 30.052C92.243 25.484 93.466 21.169 95.541 19.844C97.229 18.766 99.302 19.79 100.918 20.801C101.781 21.341 102.652 21.976 103.494 22.589C105.393 23.973 107.193 25.284 108.59 25.284C108.661 25.284 108.73 25.281 108.799 25.274C109.302 25.224 109.714 24.994 110.059 24.572C110.578 23.937 111.142 23.117 111.74 22.248C113.189 20.142 114.992 17.521 117.331 15.805C118.199 15.168 119.086 14.694 119.996 14.382V14.304H120Z" fill="url(#paint24_radial_1_2)"/>
		<path d="M120 14.139C118.945 14.464 117.924 15.001 116.928 15.755C114.548 17.558 112.742 20.289 111.291 22.484C110.706 23.368 110.154 24.203 109.65 24.845C109.326 25.257 108.94 25.48 108.469 25.527C107.082 25.665 105.179 24.226 103.165 22.703C102.299 22.048 101.403 21.37 100.513 20.791C98.834 19.698 96.679 18.59 94.907 19.723C92.799 21.071 91.597 25.536 90.325 30.264C88.877 35.643 87.381 41.205 84.449 41.887C80.867 42.72 77.14 41.486 73.057 38.113C69.438 35.123 65.983 30.865 62.642 26.746C61.758 25.655 60.843 24.528 59.954 23.461C57.26 20.227 54.345 16.959 50.957 15.64C48.127 14.537 44.794 14.749 40.768 16.286C37.292 17.613 33.658 19.762 29.609 22.228C29.194 22.481 28.779 22.735 28.364 22.989C22.211 26.754 15.849 30.646 10.477 29.907C8.236 29.598 5.931 29.16 3.701 28.737C2.474 28.503 1.238 28.269 0 28.053V28.127C1.231 28.342 2.459 28.575 3.681 28.807C5.912 29.231 8.219 29.669 10.463 29.978C10.917 30.041 11.377 30.07 11.843 30.07C16.943 30.07 22.771 26.504 28.422 23.046C28.837 22.792 29.252 22.538 29.667 22.285C33.711 19.822 37.341 17.675 40.81 16.351C44.809 14.824 48.115 14.613 50.918 15.705C54.286 17.016 57.192 20.275 59.879 23.5C60.768 24.567 61.682 25.694 62.566 26.784C65.909 30.906 69.366 35.167 72.991 38.162C76.273 40.873 79.329 42.21 82.27 42.21C83.012 42.21 83.746 42.125 84.475 41.955C87.459 41.261 88.962 35.677 90.415 30.278C91.684 25.564 92.882 21.111 94.965 19.778C96.686 18.677 98.803 19.77 100.455 20.845C101.343 21.422 102.237 22.099 103.102 22.754C105.04 24.22 106.875 25.608 108.281 25.608C108.349 25.608 108.415 25.605 108.481 25.598C108.981 25.548 109.389 25.314 109.728 24.882C110.234 24.237 110.787 23.401 111.372 22.516C112.82 20.326 114.622 17.601 116.992 15.806C117.967 15.068 118.967 14.539 120 14.217V14.139Z" fill="url(#paint25_radial_1_2)"/>
		<path d="M120 13.98C118.82 14.307 117.685 14.898 116.584 15.758C114.173 17.64 112.369 20.477 110.919 22.756C110.347 23.655 109.807 24.504 109.315 25.156C108.997 25.577 108.615 25.805 108.148 25.851C106.758 25.99 104.822 24.474 102.773 22.869C101.883 22.172 100.964 21.452 100.049 20.835C98.335 19.679 96.135 18.5 94.33 19.657C92.214 21.013 91.037 25.616 89.792 30.49C88.375 36.033 86.911 41.765 83.961 42.43C80.414 43.23 76.743 41.937 72.739 38.475C69.189 35.406 65.81 31.049 62.542 26.835C61.612 25.636 60.65 24.396 59.715 23.227C56.467 19.167 53.836 16.409 50.764 15.202C47.939 14.092 44.599 14.351 40.554 15.995C36.82 17.512 32.848 20.041 29.343 22.272C28.979 22.504 28.615 22.736 28.25 22.969C22.013 26.954 15.563 31.074 10.152 30.277C7.858 29.939 5.495 29.46 3.21 28.997C2.144 28.783 1.073 28.566 0 28.361V28.436C1.065 28.639 2.129 28.855 3.186 29.069C5.472 29.532 7.837 30.011 10.134 30.35C15.587 31.153 22.053 27.022 28.307 23.027C28.671 22.794 29.036 22.562 29.4 22.33C32.901 20.101 36.869 17.575 40.595 16.061C44.613 14.428 47.926 14.169 50.722 15.269C53.775 16.468 56.396 19.218 59.636 23.267C60.571 24.435 61.532 25.675 62.462 26.874C65.732 31.09 69.114 35.45 72.67 38.525C75.93 41.343 78.974 42.733 81.916 42.733C82.61 42.733 83.3 42.656 83.985 42.501C86.988 41.824 88.458 36.07 89.88 30.506C91.122 25.645 92.295 21.054 94.386 19.715C96.139 18.592 98.301 19.754 99.988 20.892C100.9 21.507 101.819 22.227 102.707 22.923C104.682 24.47 106.552 25.935 107.967 25.935C108.032 25.935 108.096 25.932 108.159 25.926C108.656 25.876 109.06 25.638 109.394 25.196C109.888 24.542 110.429 23.692 111.001 22.792C112.448 20.517 114.248 17.687 116.648 15.813C117.729 14.969 118.843 14.387 120 14.062V13.98Z" fill="url(#paint26_radial_1_2)"/>
		<path d="M120 13.836C119.926 13.854 119.853 13.871 119.78 13.891C115.415 15.085 112.601 19.678 110.547 23.032C109.988 23.944 109.46 24.806 108.981 25.466C108.668 25.897 108.291 26.128 107.826 26.175C106.431 26.315 104.463 24.723 102.38 23.037C101.467 22.298 100.523 21.534 99.584 20.879C97.834 19.659 95.591 18.41 93.751 19.59C91.627 20.953 90.475 25.695 89.257 30.715C87.871 36.422 86.439 42.324 83.471 42.972C79.956 43.74 76.339 42.388 72.412 38.838C68.929 35.689 65.622 31.234 62.425 26.925C61.454 25.616 60.45 24.263 59.473 22.993C56.958 19.722 53.988 16.119 50.569 14.765C44.231 12.252 36.526 17.369 29.074 22.318C28.758 22.527 28.443 22.738 28.127 22.948C21.807 27.156 15.271 31.507 9.823 30.651C7.479 30.283 5.063 29.763 2.727 29.261C1.821 29.066 0.911 28.87 0 28.682V28.757C0.903 28.944 1.805 29.138 2.702 29.331C5.04 29.834 7.458 30.354 9.805 30.723C10.279 30.797 10.761 30.833 11.25 30.833C16.426 30.833 22.396 26.858 28.186 23.004C28.502 22.794 28.817 22.584 29.133 22.374C36.562 17.441 44.244 12.339 50.527 14.831C53.925 16.177 56.885 19.77 59.394 23.032C60.371 24.302 61.374 25.655 62.345 26.963C65.545 31.274 68.854 35.733 72.343 38.887C75.579 41.813 78.612 43.255 81.555 43.255C82.206 43.255 82.852 43.185 83.496 43.044C86.518 42.384 87.957 36.46 89.347 30.73C90.563 25.723 91.711 20.994 93.809 19.648C95.595 18.502 97.801 19.734 99.523 20.935C100.46 21.588 101.403 22.351 102.314 23.089C104.325 24.716 106.229 26.257 107.653 26.257C107.716 26.257 107.777 26.254 107.838 26.248C108.333 26.199 108.733 25.955 109.061 25.503C109.542 24.84 110.071 23.978 110.631 23.064C112.678 19.722 115.482 15.144 119.811 13.96C119.874 13.943 119.938 13.928 120.001 13.913L120 13.836Z" fill="url(#paint27_radial_1_2)"/>
		<path d="M120 13.692C119.838 13.727 119.676 13.764 119.516 13.809C115.055 15.046 112.234 19.823 110.175 23.311C109.629 24.235 109.113 25.109 108.646 25.777C108.338 26.217 107.965 26.453 107.504 26.499C106.105 26.64 104.105 24.972 101.989 23.207C101.053 22.426 100.084 21.618 99.12 20.924C97.335 19.64 95.046 18.321 93.174 19.525C91.041 20.895 89.915 25.775 88.724 30.942C87.369 36.814 85.968 42.886 82.983 43.517C79.499 44.254 75.933 42.843 72.081 39.204C68.662 35.975 65.426 31.421 62.297 27.017C61.289 25.599 60.247 24.132 59.233 22.761C56.15 18.592 53.464 15.563 50.376 14.329C44.077 11.81 36.315 17.175 28.808 22.364C28.539 22.55 28.27 22.736 28.002 22.922C21.601 27.354 14.983 31.937 9.49901 31.025C7.10901 30.627 4.64301 30.066 2.25701 29.524C1.50801 29.354 0.757006 29.183 0.00300598 29.016V29.091C0.748006 29.256 1.49101 29.425 2.23101 29.593C4.61801 30.136 7.08601 30.697 9.47901 31.096C11.961 31.509 14.882 30.846 18.408 29.07C21.545 27.49 24.858 25.196 28.061 22.977C28.33 22.791 28.599 22.605 28.867 22.419C36.351 17.246 44.09 11.897 50.333 14.394C53.402 15.62 56.078 18.64 59.152 22.798C60.166 24.169 61.208 25.635 62.215 27.053C65.346 31.46 68.584 36.017 72.009 39.251C75.222 42.285 78.241 43.779 81.185 43.779C81.795 43.779 82.401 43.715 83.005 43.587C86.047 42.944 87.453 36.849 88.813 30.955C90.002 25.802 91.125 20.935 93.231 19.582C95.049 18.414 97.3 19.715 99.057 20.979C100.019 21.671 100.986 22.478 101.922 23.258C103.968 24.965 105.906 26.581 107.337 26.581C107.397 26.581 107.457 26.578 107.516 26.572C108.008 26.523 108.404 26.274 108.727 25.813C109.196 25.142 109.712 24.268 110.259 23.343C112.312 19.867 115.123 15.106 119.548 13.879C119.698 13.837 119.85 13.802 120.002 13.769V13.692H120Z" fill="url(#paint28_radial_1_2)"/>
		<path d="M120 13.555C119.748 13.601 119.498 13.658 119.252 13.727C114.694 15.008 111.867 19.97 109.802 23.593C109.246 24.569 108.766 25.411 108.31 26.087C108.008 26.536 107.638 26.777 107.18 26.823C105.774 26.966 103.746 25.222 101.597 23.377C100.637 22.553 99.644 21.701 98.654 20.967C96.834 19.62 94.501 18.23 92.594 19.457C90.453 20.835 89.353 25.852 88.188 31.165C86.864 37.202 85.495 43.444 82.491 44.058C74.765 45.638 68.354 36.217 62.152 27.106C61.112 25.578 60.036 23.998 58.988 22.525C55.942 18.246 53.279 15.139 50.177 13.889C47.367 12.755 44.006 13.159 39.902 15.123C36.234 16.878 32.32 19.688 28.536 22.406L27.865 22.888C21.385 27.547 14.684 32.364 9.168 31.394C6.734 30.966 4.22 30.364 1.79 29.781C1.194 29.64 0.598 29.497 0 29.356V29.432C0.589 29.571 1.176 29.712 1.762 29.852C4.195 30.435 6.71 31.037 9.147 31.466C11.645 31.905 14.592 31.212 18.158 29.345C21.329 27.685 24.683 25.274 27.926 22.943L28.597 22.461C32.379 19.746 36.289 16.938 39.949 15.186C44.024 13.236 47.356 12.834 50.135 13.955C53.216 15.197 55.87 18.294 58.907 22.562C59.955 24.034 61.03 25.614 62.07 27.142C65.135 31.645 68.304 36.301 71.666 39.615C74.854 42.758 77.86 44.304 80.805 44.304C81.376 44.304 81.945 44.246 82.513 44.13C85.574 43.504 86.949 37.238 88.278 31.179C89.44 25.88 90.538 20.876 92.652 19.515C94.503 18.324 96.798 19.694 98.591 21.022C99.579 21.753 100.57 22.604 101.529 23.428C103.695 25.287 105.742 27.043 107.192 26.897C107.682 26.847 108.074 26.594 108.392 26.123C108.849 25.445 109.33 24.601 109.886 23.624C111.944 20.013 114.762 15.067 119.283 13.797C119.52 13.731 119.759 13.675 120.001 13.63L120 13.555Z" fill="url(#paint29_radial_1_2)"/>
		<path d="M120 13.427C119.658 13.479 119.32 13.551 118.987 13.645C114.332 14.969 111.498 20.119 109.429 23.878C108.887 24.864 108.418 25.715 107.975 26.397C107.677 26.855 107.311 27.1 106.856 27.147C105.448 27.29 103.388 25.473 101.206 23.55C100.222 22.682 99.204 21.785 98.188 21.012C96.333 19.601 93.955 18.141 92.015 19.392C89.866 20.777 88.791 25.932 87.653 31.391C86.36 37.593 85.023 44.006 82 44.603C74.338 46.116 68.065 36.499 61.998 27.199C60.929 25.56 59.824 23.866 58.746 22.293C55.737 17.902 53.095 14.719 49.982 13.453C47.184 12.314 43.828 12.761 39.72 14.817C36.061 16.648 32.136 19.572 28.34 22.399L27.726 22.856C21.168 27.743 14.388 32.796 8.84 31.768C6.365 31.31 3.807 30.666 1.332 30.044C0.889 29.932 0.445 29.82 0 29.71V29.786C0.435 29.895 0.87 30.004 1.304 30.113C3.78 30.736 6.34 31.38 8.818 31.839C11.331 32.304 14.304 31.579 17.909 29.623C21.114 27.883 24.507 25.354 27.788 22.909L28.401 22.452C32.194 19.627 36.116 16.707 39.768 14.879C43.846 12.838 47.173 12.393 49.939 13.518C53.031 14.775 55.663 17.949 58.664 22.328C59.742 23.901 60.847 25.595 61.915 27.233C67.567 35.897 73.397 44.835 80.396 44.834C80.93 44.834 81.472 44.782 82.02 44.674C85.101 44.065 86.443 37.629 87.741 31.404C88.876 25.96 89.949 20.817 92.07 19.45C93.954 18.236 96.294 19.676 98.121 21.066C99.134 21.837 100.151 22.733 101.134 23.6C103.249 25.465 105.251 27.23 106.695 27.229C106.752 27.229 106.808 27.226 106.864 27.221C107.352 27.171 107.741 26.914 108.053 26.433C108.498 25.749 108.967 24.896 109.51 23.909C111.572 20.161 114.397 15.028 119.015 13.715C119.337 13.623 119.664 13.554 119.996 13.503V13.427H120Z" fill="url(#paint30_radial_1_2)"/>
		<path d="M120 13.306C119.567 13.359 119.141 13.444 118.723 13.564C113.969 14.932 111.13 20.27 109.057 24.168C108.528 25.162 108.072 26.021 107.64 26.709C107.347 27.176 106.984 27.426 106.531 27.473C105.119 27.617 103.029 25.727 100.815 23.725C99.806 22.813 98.764 21.871 97.722 21.058C95.832 19.583 93.409 18.054 91.436 19.327C89.279 20.719 88.23 26.012 87.119 31.616C85.857 37.983 84.551 44.567 81.51 45.147C73.909 46.596 67.771 36.783 61.835 27.293C60.741 25.544 59.609 23.734 58.504 22.061C55.532 17.56 52.912 14.299 49.787 13.017C48.295 12.405 46.688 12.257 44.875 12.566C43.262 12.841 41.52 13.474 39.551 14.502C35.895 16.409 31.969 19.437 28.171 22.365L27.583 22.818C20.949 27.935 14.091 33.226 8.512 32.14C5.999 31.651 3.398 30.966 0.883 30.305C0.589 30.227 0.295 30.15 0 30.073V30.149C0.285 30.224 0.57 30.299 0.854 30.374C3.371 31.036 5.973 31.721 8.49 32.211C11.017 32.703 14.016 31.946 17.658 29.898C20.897 28.077 24.328 25.43 27.647 22.87L28.235 22.417C32.029 19.491 35.953 16.466 39.601 14.562C43.676 12.436 46.993 11.951 49.744 13.081C52.848 14.354 55.458 17.604 58.422 22.094C59.527 23.767 60.658 25.576 61.752 27.325C67.306 36.203 73.035 45.364 80.009 45.363C80.51 45.363 81.017 45.316 81.531 45.218C84.632 44.627 85.942 38.019 87.209 31.628C88.317 26.038 89.364 20.758 91.494 19.384C92.99 18.419 94.891 18.951 97.658 21.11C98.697 21.921 99.739 22.863 100.746 23.773C102.895 25.715 104.928 27.554 106.378 27.554C106.434 27.554 106.489 27.551 106.543 27.546C107.029 27.496 107.414 27.233 107.722 26.743C108.155 26.053 108.612 25.193 109.141 24.198C111.207 20.313 114.037 14.991 118.754 13.634C119.161 13.517 119.577 13.434 119.999 13.381L120 13.306Z" fill="url(#paint31_radial_1_2)"/>
		<path d="M120 13.189C119.475 13.238 118.961 13.336 118.459 13.482C113.606 14.894 110.762 20.423 108.686 24.46C108.171 25.462 107.726 26.327 107.306 27.02C107.018 27.497 106.658 27.751 106.208 27.798C104.793 27.944 102.673 25.98 100.427 23.9C99.394 22.944 98.326 21.956 97.259 21.102C95.334 19.563 92.866 17.963 90.86 19.261C88.696 20.66 87.672 26.091 86.588 31.841C85.356 38.374 84.083 45.129 81.023 45.691C73.482 47.078 67.474 37.067 61.665 27.386C60.548 25.525 59.394 23.601 58.264 21.827C55.328 17.214 52.73 13.877 49.594 12.58C48.109 11.965 46.508 11.828 44.698 12.16C43.089 12.455 41.349 13.118 39.381 14.186C35.727 16.169 31.798 19.302 27.999 22.331L27.438 22.778C20.73 28.126 13.793 33.657 8.186 32.514C5.637 31.994 2.996 31.269 0.441999 30.567C0.294999 30.527 0.148999 30.487 0.0019989 30.446V30.523C0.138999 30.561 0.274999 30.598 0.411999 30.636C2.968 31.338 5.61 32.064 8.163 32.584C10.703 33.102 13.727 32.313 17.407 30.173C20.678 28.271 24.148 25.504 27.503 22.829L28.064 22.382C31.861 19.355 35.786 16.226 39.433 14.246C43.505 12.035 46.815 11.512 49.551 12.644C52.666 13.932 55.254 17.26 58.182 21.86C59.311 23.633 60.465 25.557 61.581 27.418C67.037 36.511 72.666 45.894 79.617 45.893C80.086 45.893 80.562 45.85 81.043 45.762C84.164 45.189 85.442 38.409 86.678 31.852C87.76 26.116 88.781 20.699 90.918 19.318C92.439 18.335 94.375 18.901 97.194 21.154C98.259 22.005 99.326 22.993 100.358 23.948C102.54 25.967 104.604 27.879 106.06 27.879C106.115 27.879 106.168 27.876 106.221 27.871C106.705 27.821 107.088 27.553 107.39 27.053C107.811 26.358 108.256 25.492 108.772 24.489C110.842 20.465 113.677 14.953 118.492 13.552C118.983 13.409 119.487 13.314 120.001 13.265L120 13.189Z" fill="url(#paint32_radial_1_2)"/>
		<path d="M120 13.083C119.383 13.124 118.78 13.228 118.195 13.4C113.241 14.856 110.393 20.577 108.314 24.754C107.812 25.762 107.379 26.632 106.971 27.33C106.687 27.816 106.331 28.075 105.883 28.122C104.464 28.271 102.316 26.233 100.038 24.077C98.981 23.076 97.887 22.041 96.793 21.147C94.833 19.544 92.321 17.874 90.28 19.195C88.108 20.601 87.11 26.169 86.052 32.065C84.851 38.763 83.609 45.689 80.531 46.234C73.043 47.559 67.166 37.351 61.482 27.48C60.346 25.507 59.172 23.468 58.021 21.593C55.512 17.506 52.73 13.532 49.397 12.142C47.919 11.525 46.323 11.397 44.516 11.752C42.91 12.067 41.172 12.76 39.204 13.869C35.551 15.928 31.619 19.165 27.817 22.296L27.285 22.734C20.503 28.314 13.49 34.085 7.85601 32.885C5.27201 32.335 2.59401 31.568 0.00300818 30.827C0.00200818 30.827 0.00100818 30.826 -0.000991821 30.826V30.903C2.58301 31.642 5.25301 32.405 7.83101 32.955C10.385 33.499 13.432 32.678 17.148 30.445C20.451 28.46 23.958 25.574 27.349 22.783L27.881 22.345C31.681 19.217 35.61 15.983 39.256 13.927C43.327 11.632 46.63 11.069 49.352 12.205C52.661 13.585 55.434 17.548 57.936 21.624C59.086 23.498 60.261 25.537 61.396 27.509C66.756 36.817 72.286 46.423 79.214 46.422C79.653 46.422 80.098 46.383 80.549 46.304C83.689 45.748 84.936 38.797 86.141 32.075C87.196 26.194 88.191 20.639 90.336 19.251C91.883 18.25 93.853 18.85 96.725 21.197C97.816 22.089 98.909 23.123 99.965 24.123C102.36 26.39 104.427 28.349 105.893 28.194C106.375 28.144 106.755 27.871 107.053 27.361C107.462 26.661 107.896 25.79 108.398 24.781C110.471 20.617 113.31 14.913 118.226 13.468C118.801 13.299 119.392 13.197 119.999 13.156L120 13.083Z" fill="url(#paint33_radial_1_2)"/>
		<path d="M120 12.981C119.29 13.008 118.599 13.119 117.931 13.318C115.694 13.982 113.687 15.572 111.796 18.179C110.186 20.399 108.942 22.979 107.943 25.051C107.455 26.064 107.033 26.938 106.637 27.64C106.357 28.135 106.005 28.399 105.558 28.446C104.139 28.595 101.959 26.486 99.649 24.253C98.567 23.207 97.448 22.125 96.328 21.19C94.333 19.524 91.776 17.783 89.702 19.128C87.522 20.541 86.549 26.247 85.519 32.287C84.349 39.151 83.139 46.249 80.041 46.775C72.607 48.04 66.855 37.635 61.292 27.573C60.14 25.488 58.948 23.333 57.778 21.358C55.3 17.175 52.545 13.11 49.201 11.703C47.738 11.087 46.157 10.968 44.368 11.337C42.776 11.666 41.053 12.378 39.101 13.514C35.476 15.623 31.562 18.934 27.777 22.136L27.193 22.63C20.33 28.478 13.232 34.525 7.529 33.257C5.054 32.707 2.492 31.956 0 31.216V31.293C2.484 32.03 5.036 32.779 7.504 33.327C8.03 33.444 8.568 33.499 9.116 33.499C14.561 33.499 21.008 28.007 27.261 22.681L27.845 22.187C31.627 18.988 35.538 15.679 39.156 13.574C43.193 11.225 46.465 10.634 49.159 11.768C52.479 13.165 55.224 17.218 57.696 21.389C58.865 23.363 60.057 25.518 61.209 27.602C66.473 37.125 71.906 46.954 78.812 46.953C79.222 46.953 79.639 46.918 80.06 46.847C83.221 46.309 84.435 39.186 85.61 32.297C86.637 26.271 87.608 20.579 89.76 19.184C91.332 18.165 93.337 18.799 96.261 21.24C97.379 22.173 98.497 23.254 99.578 24.299C102.005 26.646 104.102 28.673 105.57 28.518C106.051 28.467 106.427 28.19 106.721 27.67C107.118 26.966 107.54 26.091 108.029 25.077C109.027 23.007 110.269 20.43 111.876 18.215C113.756 15.623 115.747 14.043 117.964 13.385C118.622 13.19 119.302 13.08 120.001 13.053L120 12.981Z" fill="url(#paint34_radial_1_2)"/>
		<path d="M120 12.886C119.196 12.895 118.417 13.01 117.666 13.235C115.384 13.919 113.347 15.563 111.436 18.262C109.811 20.558 108.569 23.216 107.571 25.351C107.096 26.367 106.686 27.245 106.301 27.951C106.026 28.455 105.676 28.724 105.231 28.771C103.809 28.924 101.6 26.742 99.26 24.433C98.153 23.341 97.009 22.212 95.862 21.235C93.831 19.505 91.23 17.694 89.123 19.062C86.935 20.482 85.988 26.325 84.985 32.511C83.846 39.541 82.667 46.81 79.551 47.319C72.166 48.525 66.539 37.922 61.096 27.669C59.929 25.472 58.723 23.2 57.537 21.125C55.09 16.846 52.362 12.69 49.007 11.267C47.55 10.648 45.973 10.538 44.185 10.931C42.595 11.28 40.872 12.022 38.919 13.199C35.292 15.385 31.372 18.802 27.581 22.106L26.926 22.677C20.045 28.713 12.929 34.955 7.202 33.63C4.836 33.083 2.39 32.348 0 31.613V31.691C2.382 32.423 4.818 33.154 7.175 33.699C7.709 33.823 8.255 33.881 8.811 33.881C14.274 33.881 20.73 28.218 26.993 22.725L27.648 22.154C31.436 18.852 35.353 15.438 38.973 13.256C43.013 10.821 46.28 10.191 48.963 11.33C52.294 12.743 55.012 16.887 57.453 21.154C58.639 23.228 59.845 25.499 61.011 27.696C66.18 37.434 71.516 47.486 78.403 47.485C78.787 47.485 79.176 47.454 79.57 47.389C82.751 46.87 83.933 39.574 85.077 32.519C86.077 26.347 87.022 20.518 89.182 19.117C90.78 18.08 92.82 18.748 95.796 21.283C96.941 22.258 98.084 23.386 99.19 24.477C101.563 26.818 103.623 28.85 105.087 28.85C105.141 28.85 105.193 28.847 105.245 28.842C105.724 28.791 106.098 28.509 106.387 27.979C106.773 27.272 107.183 26.393 107.659 25.376C109.62 21.179 112.583 14.836 117.7 13.303C118.44 13.081 119.208 12.968 120.001 12.959L120 12.886Z" fill="url(#paint35_radial_1_2)"/>
		<path d="M120 12.798C119.102 12.785 118.234 12.902 117.402 13.154C112.143 14.744 109.169 21.31 107.201 25.655C106.74 26.674 106.341 27.554 105.967 28.262C105.696 28.776 105.349 29.049 104.906 29.097C103.489 29.25 101.244 26.998 98.873 24.614C97.741 23.476 96.571 22.299 95.397 21.28C93.331 19.486 90.685 17.605 88.545 18.997C86.35 20.423 85.428 26.404 84.453 32.735C83.344 39.931 82.198 47.372 79.062 47.863C71.729 49.011 66.219 38.211 60.893 27.766C59.715 25.456 58.496 23.066 57.295 20.892C54.878 16.517 52.178 12.27 48.812 10.83C47.36 10.209 45.786 10.108 43.999 10.523C42.411 10.892 40.688 11.664 38.733 12.882C35.103 15.145 31.177 18.667 27.379 22.074L26.657 22.722C23.396 25.664 19.7 28.998 16.247 31.256C12.485 33.716 9.419 34.614 6.874 34.003C4.618 33.46 2.288 32.744 0 32.019V32.097C2.278 32.819 4.599 33.531 6.846 34.071C9.422 34.69 12.516 33.787 16.304 31.311C19.763 29.049 23.462 25.713 26.725 22.769L27.447 22.122C31.242 18.718 35.166 15.198 38.789 12.939C42.832 10.419 46.096 9.75 48.767 10.893C52.109 12.322 54.8 16.557 57.21 20.92C58.411 23.094 59.629 25.483 60.807 27.792C65.882 37.745 71.121 48.019 77.989 48.019C78.348 48.019 78.711 47.991 79.079 47.933C82.28 47.432 83.431 39.964 84.543 32.742C85.516 26.425 86.436 20.459 88.603 19.051C90.227 17.996 92.302 18.698 95.329 21.327C96.5 22.344 97.67 23.52 98.8 24.657C101.205 27.075 103.293 29.175 104.762 29.175C104.815 29.175 104.867 29.172 104.918 29.167C105.396 29.116 105.767 28.828 106.051 28.289C106.426 27.579 106.825 26.699 107.286 25.679C109.249 21.346 112.214 14.799 117.434 13.221C118.255 12.973 119.112 12.857 119.999 12.87L120 12.798Z" fill="url(#paint36_radial_1_2)"/>
		<path d="M120 12.714C119.007 12.674 118.051 12.792 117.137 13.071C111.775 14.706 108.799 21.479 106.83 25.96C106.382 26.98 105.994 27.862 105.632 28.572C105.365 29.095 105.02 29.373 104.579 29.421C103.158 29.578 100.887 27.253 98.485 24.795C97.328 23.611 96.132 22.386 94.931 21.324C92.83 19.466 90.14 17.515 87.965 18.93C85.762 20.363 84.866 26.481 83.918 32.958C82.84 40.321 81.725 47.934 78.57 48.406C71.282 49.498 65.893 38.499 60.681 27.863C59.493 25.439 58.265 22.932 57.051 20.658C54.665 16.187 51.991 11.848 48.615 10.392C47.168 9.76701 45.597 9.67701 43.811 10.114C42.224 10.503 40.501 11.305 38.544 12.565C34.911 14.904 30.977 18.533 27.172 22.042L26.387 22.766C19.79 28.881 12.313 35.811 6.544 34.374C4.399 33.839 2.184 33.144 0 32.432V32.51C2.174 33.219 4.38 33.91 6.517 34.443C9.094 35.085 12.194 34.16 15.992 31.615C19.232 29.444 22.509 26.472 26.457 22.813L27.242 22.089C31.044 18.582 34.976 14.956 38.603 12.621C42.65 10.015 45.91 9.30701 48.572 10.456C51.924 11.902 54.588 16.227 56.968 20.686C58.182 22.96 59.41 25.466 60.597 27.889C65.579 38.056 70.722 48.554 77.572 48.553C77.907 48.553 78.246 48.528 78.589 48.477C81.81 47.994 82.929 40.354 84.011 32.966C84.957 26.504 85.851 20.401 88.025 18.986C89.675 17.913 91.784 18.649 94.864 21.372C96.062 22.432 97.258 23.656 98.413 24.839C100.936 27.422 103.116 29.652 104.592 29.493C105.069 29.441 105.437 29.149 105.717 28.599C106.08 27.887 106.468 27.005 106.917 25.984C108.881 21.515 111.848 14.761 117.171 13.139C118.073 12.864 119.019 12.748 120.001 12.788L120 12.714Z" fill="url(#paint37_radial_1_2)"/>
		<path d="M120 12.638C118.912 12.568 117.867 12.683 116.873 12.989C111.407 14.669 108.43 21.65 106.46 26.269C106.025 27.29 105.649 28.171 105.297 28.883C105.034 29.416 104.692 29.698 104.252 29.747C102.828 29.903 100.529 27.511 98.098 24.978C96.916 23.747 95.694 22.473 94.466 21.369C92.33 19.447 89.596 17.426 87.387 18.865C85.177 20.305 84.306 26.56 83.385 33.182C82.338 40.711 81.254 48.496 78.081 48.951C70.836 49.988 65.566 38.791 60.466 27.963C59.271 25.425 58.035 22.8 56.81 20.425C54.454 15.858 51.807 11.428 48.421 9.95501C46.979 9.32801 45.41 9.24601 43.625 9.70601C42.039 10.115 40.315 10.946 38.356 12.248C34.719 14.664 30.777 18.399 26.964 22.011C26.683 22.278 26.401 22.545 26.119 22.811C19.503 29.106 12.004 36.241 6.217 34.747C4.18 34.22 2.078 33.548 0 32.852V32.931C2.069 33.623 4.16 34.292 6.189 34.816C8.767 35.481 11.872 34.534 15.681 31.919C18.949 29.676 22.374 26.488 26.19 22.857C26.472 22.59 26.753 22.324 27.035 22.057C30.845 18.447 34.785 14.715 38.416 12.303C40.366 11.008 42.079 10.181 43.654 9.77501C45.413 9.32201 46.958 9.40101 48.377 10.018C51.739 11.48 54.376 15.896 56.726 20.451C57.951 22.825 59.186 25.449 60.381 27.986C65.27 38.368 70.319 49.088 77.151 49.088C77.463 49.088 77.779 49.066 78.098 49.02C81.339 48.556 82.426 40.743 83.477 33.188C84.396 26.581 85.264 20.341 87.446 18.919C89.121 17.828 91.265 18.597 94.397 21.415C95.623 22.518 96.844 23.79 98.025 25.02C100.494 27.592 102.637 29.825 104.114 29.825C104.165 29.825 104.216 29.822 104.265 29.817C104.741 29.765 105.106 29.467 105.383 28.908C105.735 28.195 106.112 27.313 106.547 26.291C108.511 21.685 111.48 14.723 116.906 13.056C117.889 12.754 118.923 12.641 120 12.711V12.638Z" fill="url(#paint38_radial_1_2)"/>
		<path d="M120 12.567C118.816 12.462 117.682 12.574 116.608 12.907C111.037 14.633 108.06 21.823 106.09 26.58C105.668 27.6 105.303 28.481 104.962 29.193C104.703 29.735 104.364 30.022 103.925 30.071C102.496 30.23 100.172 27.767 97.711 25.161C96.504 23.882 95.255 22.56 94 21.412C92.533 20.07 91.295 19.191 90.217 18.723C88.884 18.146 87.769 18.17 86.808 18.797C84.59 20.244 83.746 26.636 82.852 33.403C81.835 41.099 80.784 49.056 77.591 49.492C70.392 50.475 65.234 39.08 60.245 28.061C59.044 25.408 57.802 22.665 56.568 20.19C54.354 15.75 51.631 11.01 48.225 9.51701C46.787 8.88601 45.221 8.81401 43.437 9.29701C41.851 9.72601 40.127 10.587 38.166 11.93C34.525 14.423 30.574 18.264 26.752 21.979C26.451 22.271 26.151 22.563 25.85 22.855C19.215 29.33 11.694 36.669 5.889 35.118C3.96 34.603 1.972 33.955 0 33.278V33.357C1.962 34.03 3.939 34.674 5.86 35.187C6.402 35.332 6.958 35.4 7.527 35.4C13.112 35.399 19.883 28.793 25.922 22.9C26.223 22.608 26.523 22.316 26.824 22.024C30.643 18.312 34.592 14.473 38.227 11.984C40.179 10.647 41.893 9.79101 43.468 9.36501C45.227 8.88901 46.768 8.96001 48.182 9.58001C51.563 11.062 54.276 15.788 56.484 20.216C57.718 22.69 58.959 25.433 60.16 28.085C64.957 38.682 69.911 49.624 76.727 49.624C77.017 49.624 77.311 49.604 77.608 49.563C80.87 49.118 81.925 41.132 82.945 33.41C83.837 26.658 84.68 20.281 86.869 18.853C88.57 17.743 90.749 18.547 93.933 21.459C95.186 22.605 96.433 23.926 97.64 25.204C100.14 27.852 102.311 30.151 103.791 30.151C103.842 30.151 103.891 30.148 103.94 30.143C104.415 30.09 104.778 29.788 105.05 29.219C105.392 28.505 105.756 27.623 106.179 26.603C108.144 21.858 111.113 14.688 116.643 12.975C117.706 12.646 118.828 12.536 120.001 12.641L120 12.567Z" fill="url(#paint39_radial_1_2)"/>
		<path d="M120 12.502C118.719 12.359 117.497 12.465 116.343 12.825C110.667 14.597 107.69 21.997 105.721 26.895C105.311 27.913 104.958 28.792 104.628 29.505C104.372 30.057 104.036 30.349 103.599 30.398C102.171 30.558 99.817 28.027 97.326 25.348C96.093 24.022 94.818 22.65 93.536 21.459C92.046 20.074 90.788 19.165 89.692 18.679C88.338 18.079 87.206 18.097 86.231 18.734C84.006 20.187 83.187 26.716 82.32 33.628C81.334 41.49 80.314 49.62 77.102 50.038C69.947 50.967 64.899 39.375 60.019 28.163C58.814 25.396 57.569 22.534 56.327 19.958C54.142 15.427 51.447 10.591 48.031 9.08101C46.598 8.44701 45.034 8.38501 43.25 8.89001C41.665 9.33901 39.94 10.23 37.976 11.614C34.33 14.184 30.37 18.131 26.539 21.949C26.22 22.267 25.902 22.584 25.583 22.901C21.758 26.725 18.322 30.085 14.997 32.474C11.193 35.207 8.107 36.194 5.562 35.492C3.74 34.988 1.865 34.366 0 33.711V33.79C1.855 34.44 3.719 35.059 5.531 35.559C8.111 36.271 11.227 35.278 15.058 32.526C18.388 30.133 21.827 26.771 25.654 22.945C25.973 22.628 26.292 22.31 26.61 21.993C30.438 18.178 34.396 14.233 38.036 11.667C39.991 10.289 41.706 9.40301 43.28 8.95701C45.038 8.45901 46.577 8.52001 47.985 9.14301C51.375 10.641 54.06 15.463 56.24 19.982C57.481 22.556 58.727 25.417 59.931 28.184C64.637 38.995 69.497 50.16 76.297 50.16C76.567 50.16 76.839 50.143 77.115 50.107C80.397 49.681 81.42 41.522 82.41 33.633C83.275 26.736 84.092 20.222 86.288 18.787C88.015 17.659 90.228 18.497 93.465 21.503C94.745 22.692 96.019 24.063 97.251 25.388C99.782 28.111 101.979 30.475 103.463 30.475C103.513 30.475 103.562 30.472 103.61 30.467C104.084 30.414 104.444 30.107 104.712 29.528C105.043 28.814 105.397 27.934 105.806 26.915C107.771 22.031 110.739 14.65 116.375 12.891C117.517 12.535 118.728 12.431 119.998 12.574V12.502H120Z" fill="url(#paint40_radial_1_2)"/>
		<path d="M120 12.441C118.622 12.256 117.311 12.354 116.079 12.742C110.297 14.56 107.321 22.172 105.352 27.21C104.955 28.225 104.613 29.102 104.293 29.814C104.041 30.375 103.708 30.671 103.273 30.721C101.849 30.882 99.483 28.299 96.978 25.564C95.708 24.178 94.395 22.744 93.071 21.501C91.008 19.548 87.995 17.128 85.653 18.665C83.415 20.123 82.622 26.794 81.783 33.857C80.829 41.882 79.843 50.181 76.612 50.579C69.495 51.458 64.561 39.665 59.787 28.263C58.58 25.38 57.332 22.399 56.084 19.723C53.927 15.1 51.261 10.169 47.835 8.643C46.406 8.006 44.844 7.953 43.06 8.48C41.475 8.949 39.749 9.87001 37.782 11.295C34.131 13.942 30.161 17.996 26.321 21.917C25.985 22.26 25.649 22.603 25.313 22.945C21.482 26.867 18.037 30.314 14.683 32.777C10.869 35.578 7.778 36.588 5.232 35.863C3.52 35.375 1.758 34.779 0 34.15V34.23C1.747 34.855 3.498 35.446 5.203 35.932C7.784 36.666 10.906 35.652 14.747 32.83C18.106 30.363 21.553 26.914 25.387 22.989C25.723 22.647 26.059 22.304 26.394 21.961C30.231 18.043 34.199 13.991 37.845 11.348C39.803 9.929 41.519 9.013 43.093 8.547C44.85 8.027 46.387 8.079 47.791 8.705C51.191 10.22 53.848 15.137 55.999 19.747C57.247 22.422 58.494 25.402 59.701 28.285C64.316 39.31 69.082 50.698 75.868 50.697C76.118 50.697 76.371 50.682 76.627 50.65C79.928 50.243 80.918 41.916 81.875 33.863C82.713 26.816 83.504 20.159 85.712 18.721C87.446 17.583 89.762 18.481 93.001 21.547C94.323 22.789 95.635 24.221 96.904 25.606C99.536 28.479 101.807 30.96 103.286 30.792C103.758 30.738 104.116 30.426 104.38 29.838C104.7 29.124 105.043 28.247 105.44 27.231C107.404 22.207 110.372 14.614 116.113 12.809C117.334 12.425 118.634 12.329 120 12.514V12.441Z" fill="url(#paint41_radial_1_2)"/>
		<path d="M120 12.384C118.525 12.153 117.125 12.244 115.814 12.659C109.925 14.523 106.952 22.349 104.984 27.528C104.6 28.539 104.268 29.412 103.959 30.124C103.711 30.694 103.38 30.996 102.946 31.045C101.522 31.207 99.126 28.556 96.59 25.748C95.296 24.314 93.957 22.832 92.606 21.544C90.285 19.316 88.498 18.226 86.98 18.113C86.285 18.061 85.643 18.224 85.074 18.598C82.829 20.062 82.062 26.87 81.25 34.077C80.327 42.27 79.372 50.741 76.122 51.121C69.046 51.947 64.218 39.958 59.551 28.363C58.344 25.364 57.095 22.263 55.842 19.487C53.714 14.773 51.075 9.74601 47.64 8.20301C46.215 7.56201 44.655 7.51901 42.871 8.06901C41.287 8.55701 39.559 9.50801 37.589 10.975C33.933 13.699 29.952 17.859 26.103 21.883C25.751 22.251 25.399 22.619 25.046 22.987C21.348 26.859 17.75 30.545 14.373 33.079C10.548 35.948 7.452 36.98 4.906 36.234C3.299 35.764 1.65 35.197 0 34.595V34.675C1.638 35.272 3.277 35.835 4.874 36.303C5.417 36.462 5.984 36.542 6.577 36.542C8.803 36.542 11.394 35.415 14.436 33.133C17.818 30.595 21.419 26.907 25.119 23.032C25.471 22.664 25.824 22.296 26.176 21.928C30.023 17.906 34.001 13.748 37.652 11.029C39.613 9.56801 41.331 8.62201 42.904 8.13701C44.661 7.59501 46.195 7.63801 47.594 8.26701C51.003 9.79801 53.632 14.811 55.755 19.512C57.008 22.287 58.256 25.387 59.463 28.385C63.988 39.625 68.661 51.234 75.433 51.234C75.664 51.234 75.899 51.22 76.135 51.193C79.456 50.805 80.414 42.305 81.341 34.084C82.152 26.892 82.917 20.099 85.133 18.654C85.682 18.293 86.301 18.135 86.971 18.185C88.463 18.296 90.23 19.378 92.535 21.59C93.884 22.875 95.222 24.357 96.515 25.79C99.178 28.739 101.48 31.286 102.959 31.117C103.43 31.063 103.786 30.746 104.046 30.147C104.356 29.434 104.688 28.56 105.073 27.548C107.036 22.382 110.002 14.576 115.849 12.725C117.148 12.314 118.537 12.225 120.001 12.457L120 12.384Z" fill="url(#paint42_radial_1_2)"/>
		<path d="M120 12.334C118.427 12.054 116.938 12.135 115.549 12.577C112.903 13.42 110.614 15.517 108.549 18.988C106.807 21.916 105.592 25.206 104.615 27.85C104.243 28.856 103.922 29.725 103.623 30.435C103.379 31.015 103.049 31.321 102.616 31.371C101.188 31.536 98.765 28.815 96.2 25.934C94.881 24.453 93.517 22.921 92.139 21.589C89.776 19.291 87.957 18.165 86.414 18.046C85.714 17.992 85.068 18.156 84.494 18.533C82.242 20.004 81.501 26.948 80.716 34.3C79.823 42.66 78.9 51.305 75.631 51.665C68.59 52.44 63.873 40.254 59.309 28.468C58.103 25.353 56.855 22.132 55.599 19.255C53.499 14.45 50.889 9.32701 47.444 7.76701C46.023 7.12301 44.465 7.08901 42.68 7.66101C41.095 8.16901 39.366 9.15001 37.393 10.659C33.731 13.46 29.74 17.727 25.88 21.854C25.512 22.247 25.144 22.641 24.776 23.033C21.071 27 17.463 30.777 14.059 33.384C10.224 36.322 7.122 37.376 4.576 36.607C3.076 36.154 1.539 35.616 -0.0019989 35.045V35.125C1.527 35.692 3.054 36.225 4.543 36.675C5.089 36.84 5.659 36.922 6.255 36.922C8.482 36.922 11.075 35.77 14.122 33.436C17.531 30.825 21.141 27.046 24.849 23.076C25.217 22.684 25.585 22.29 25.953 21.897C29.81 17.772 33.799 13.507 37.456 10.711C39.42 9.20901 41.14 8.23301 42.713 7.72801C44.469 7.16401 46.001 7.19801 47.397 7.83001C50.816 9.37801 53.417 14.486 55.511 19.279C56.767 22.154 58.014 25.375 59.22 28.49C63.655 39.943 68.236 51.774 74.994 51.774C75.208 51.774 75.424 51.762 75.642 51.738C78.984 51.37 79.91 42.696 80.806 34.307C81.589 26.971 82.329 20.041 84.552 18.589C85.106 18.225 85.728 18.067 86.404 18.119C87.921 18.236 89.72 19.353 92.066 21.636C93.441 22.965 94.805 24.496 96.123 25.977C98.733 28.908 100.998 31.452 102.486 31.452C102.534 31.452 102.581 31.449 102.628 31.444C103.099 31.389 103.452 31.067 103.708 30.459C104.008 29.748 104.329 28.878 104.701 27.872C105.677 25.231 106.891 21.944 108.63 19.021C110.684 15.567 112.958 13.482 115.581 12.646C116.958 12.207 118.435 12.13 119.998 12.41V12.334H120Z" fill="url(#paint43_radial_1_2)"/>
		<path d="M120 12.288C118.328 11.957 116.75 12.025 115.284 12.495C112.592 13.358 110.27 15.514 108.187 19.087C106.432 22.098 105.221 25.467 104.248 28.174C103.889 29.174 103.578 30.038 103.289 30.746C103.048 31.335 102.721 31.647 102.289 31.697C100.856 31.863 98.408 29.074 95.812 26.121C94.468 24.591 93.078 23.01 91.674 21.634C89.269 19.265 87.418 18.103 85.85 17.979C85.144 17.923 84.494 18.087 83.916 18.467C81.657 19.945 80.941 27.026 80.183 34.522C79.321 43.05 78.429 51.868 75.141 52.209C68.138 52.935 63.526 40.55 59.065 28.573C57.861 25.341 56.616 21.999 55.357 19.022C53.287 14.125 50.704 8.90601 47.25 7.33001C45.833 6.68301 44.276 6.65701 42.491 7.25301C40.907 7.78101 39.176 8.79201 37.199 10.342C33.53 13.22 29.529 17.594 25.658 21.824C25.275 22.242 24.892 22.661 24.509 23.079C20.795 27.141 17.178 31.009 13.749 33.689C9.904 36.694 6.796 37.771 4.25 36.98C2.841 36.543 1.431 36.043 0 35.503V35.582C1.42 36.116 2.834 36.618 4.216 37.048C4.764 37.218 5.337 37.304 5.938 37.304C8.166 37.304 10.762 36.126 13.814 33.741C17.248 31.057 20.868 27.186 24.584 23.122C24.967 22.704 25.35 22.286 25.733 21.867C29.601 17.639 33.601 13.267 37.264 10.394C39.232 8.85001 40.953 7.84501 42.527 7.32001C44.283 6.73401 45.813 6.75801 47.204 7.39301C50.632 8.95701 53.205 14.161 55.271 19.045C56.53 22.021 57.774 25.362 58.978 28.594C63.323 40.261 67.812 52.313 74.558 52.313C74.755 52.313 74.954 52.303 75.154 52.282C78.516 51.933 79.411 43.086 80.276 34.529C81.032 27.048 81.747 19.983 83.976 18.524C84.534 18.157 85.161 17.998 85.842 18.052C87.384 18.174 89.215 19.327 91.603 21.68C93.005 23.054 94.394 24.634 95.737 26.163C98.378 29.169 100.671 31.778 102.162 31.778C102.21 31.778 102.256 31.775 102.302 31.77C102.772 31.715 103.124 31.388 103.376 30.769C103.666 30.06 103.976 29.196 104.336 28.195C105.308 25.49 106.518 22.124 108.27 19.118C110.343 15.563 112.648 13.419 115.318 12.563C116.772 12.097 118.338 12.031 119.999 12.364L120 12.288Z" fill="url(#paint44_radial_1_2)"/>
		<path d="M120 12.247C118.23 11.86 116.562 11.915 115.019 12.412C112.28 13.296 109.926 15.512 107.825 19.186C106.056 22.28 104.85 25.729 103.881 28.5C103.534 29.493 103.234 30.351 102.955 31.056C102.718 31.655 102.393 31.971 101.961 32.022C100.532 32.191 98.164 29.465 95.425 26.308C94.056 24.73 92.64 23.098 91.21 21.678C88.763 19.238 86.881 18.041 85.287 17.911C84.575 17.853 83.921 18.018 83.339 18.401C81.073 19.886 80.383 27.103 79.652 34.744C78.82 43.439 77.961 52.431 74.652 52.752C67.687 53.429 63.177 40.847 58.817 28.678C57.617 25.329 56.376 21.866 55.116 18.788C53.073 13.8 50.518 8.48601 47.055 6.89201C45.641 6.24101 44.086 6.22501 42.3 6.84301C40.715 7.39101 38.982 8.43201 37.002 10.023C33.327 12.978 29.314 17.459 25.433 21.792C25.036 22.236 24.638 22.679 24.241 23.122C20.519 27.279 16.891 31.238 13.438 33.991C9.582 37.065 6.469 38.164 3.922 37.351C2.622 36.936 1.319 36.467 0 35.962V36.043C1.307 36.542 2.598 37.007 3.888 37.418C6.473 38.243 9.618 37.139 13.503 34.042C16.962 31.285 20.591 27.323 24.316 23.163C24.713 22.72 25.111 22.277 25.508 21.833C29.387 17.502 33.398 13.023 37.068 10.073C39.039 8.48801 40.763 7.45301 42.337 6.90801C44.094 6.30001 45.622 6.31501 47.009 6.95301C50.446 8.53401 52.992 13.833 55.029 18.808C56.289 21.885 57.53 25.347 58.729 28.696C62.986 40.576 67.382 52.85 74.117 52.849C74.297 52.849 74.48 52.84 74.664 52.822C78.047 52.493 78.91 43.472 79.744 34.747C80.473 27.122 81.162 19.92 83.398 18.454C83.96 18.084 84.593 17.925 85.278 17.981C86.845 18.109 88.707 19.297 91.138 21.721C92.567 23.139 93.982 24.77 95.35 26.347C98.106 29.524 100.486 32.268 101.975 32.092C102.445 32.036 102.794 31.704 103.043 31.076C103.323 30.37 103.623 29.511 103.97 28.518C104.938 25.749 106.143 22.303 107.909 19.215C110 15.558 112.337 13.355 115.054 12.478C116.585 11.984 118.24 11.933 120 12.321V12.247Z" fill="url(#paint45_radial_1_2)"/>
		<path d="M120 12.21C118.13 11.765 116.374 11.804 114.754 12.33C111.967 13.234 109.582 15.51 107.463 19.288C105.68 22.465 104.428 26.143 103.514 28.829C103.179 29.814 102.889 30.665 102.619 31.367C102.385 31.976 102.062 32.297 101.631 32.348C100.198 32.52 97.806 29.728 95.036 26.496C93.642 24.869 92.201 23.187 90.743 21.723C88.254 19.212 86.34 17.979 84.722 17.844C84.006 17.784 83.346 17.95 82.76 18.336C80.487 19.828 79.822 27.181 79.119 34.966C78.318 43.829 77.49 52.994 74.162 53.296C67.228 53.927 62.824 41.145 58.564 28.785C57.369 25.318 56.134 21.733 54.873 18.555C53.541 15.197 52.369 12.749 51.184 10.85C49.772 8.58801 48.357 7.15101 46.859 6.45601C45.449 5.80201 43.895 5.79501 42.108 6.43501C40.523 7.00301 38.788 8.07301 36.804 9.70701C33.122 12.739 29.097 17.327 25.205 21.764C24.794 22.232 24.383 22.701 23.972 23.169C16.055 32.191 9.056 39.514 3.594 37.725C2.402 37.334 1.208 36.897 0 36.43V36.511C1.195 36.974 2.378 37.405 3.559 37.792C6.145 38.639 9.296 37.513 13.192 34.347C16.674 31.518 20.314 27.464 24.048 23.209C24.459 22.741 24.87 22.273 25.281 21.804C29.171 17.369 33.194 12.784 36.871 9.75601C38.846 8.12901 40.572 7.06401 42.146 6.50001C43.903 5.87001 45.429 5.87601 46.812 6.51801C50.278 8.12501 52.893 13.806 54.785 18.576C56.045 21.753 57.28 25.338 58.475 28.804C62.643 40.897 66.949 53.392 73.672 53.391C73.837 53.391 74.004 53.384 74.171 53.368C77.574 53.059 78.405 43.864 79.209 34.971C79.911 27.201 80.574 19.863 82.817 18.391C83.383 18.018 84.021 17.858 84.711 17.916C86.303 18.049 88.197 19.273 90.67 21.768C92.126 23.231 93.566 24.912 94.959 26.537C97.662 29.691 100.007 32.428 101.506 32.428C101.553 32.428 101.599 32.425 101.644 32.42C102.113 32.364 102.461 32.026 102.706 31.389C102.976 30.686 103.266 29.835 103.601 28.849C105.436 23.459 108.506 14.436 114.787 12.398C116.394 11.876 118.139 11.841 119.998 12.287V12.21H120Z" fill="url(#paint46_radial_1_2)"/>
		<path d="M120 12.178C118.031 11.672 116.185 11.694 114.489 12.248C108.056 14.347 104.984 23.62 103.148 29.161C102.824 30.137 102.545 30.98 102.285 31.678C102.055 32.296 101.733 32.622 101.303 32.674C99.869 32.847 97.449 29.992 94.649 26.685C93.23 25.009 91.763 23.277 90.278 21.767C87.746 19.185 85.802 17.916 84.158 17.776C83.436 17.714 82.772 17.88 82.182 18.269C79.902 19.767 79.263 27.257 78.587 35.187C77.817 44.218 77.02 53.557 73.673 53.839C66.777 54.42 62.471 41.443 58.31 28.892C57.121 25.307 55.892 21.6 54.632 18.32C52.762 13.452 50.166 7.65401 46.665 6.01801C45.258 5.36001 43.705 5.36301 41.918 6.02501C40.332 6.61301 38.595 7.71301 36.608 9.38801C32.919 12.497 28.882 17.192 24.979 21.733C24.555 22.226 24.13 22.72 23.706 23.212C15.76 32.444 8.739 39.937 3.266 38.097C2.183 37.733 1.096 37.331 0 36.901V36.982C1.084 37.406 2.158 37.804 3.23 38.164C5.818 39.034 8.975 37.885 12.881 34.65C16.386 31.749 20.036 27.603 23.78 23.253C24.204 22.761 24.629 22.267 25.053 21.774C28.955 17.236 32.989 12.543 36.673 9.43801C38.652 7.77001 40.38 6.67501 41.955 6.09101C43.712 5.43901 45.237 5.43601 46.616 6.08101C50.09 7.70401 52.677 13.486 54.542 18.342C55.801 21.621 57.03 25.327 58.219 28.911C60.292 35.162 62.435 41.626 64.897 46.364C66.226 48.92 67.533 50.771 68.895 52.022C70.289 53.304 71.706 53.931 73.213 53.931C73.368 53.931 73.524 53.924 73.68 53.911C77.104 53.622 77.903 44.253 78.676 35.192C79.351 27.278 79.989 19.803 82.239 18.325C82.809 17.949 83.451 17.788 84.147 17.848C85.765 17.987 87.689 19.246 90.205 21.812C91.688 23.32 93.154 25.051 94.572 26.726C97.305 29.954 99.677 32.754 101.18 32.754C101.226 32.754 101.272 32.751 101.316 32.746C101.785 32.689 102.13 32.347 102.372 31.699C102.632 31 102.912 30.157 103.236 29.18C105.067 23.653 108.132 14.402 114.523 12.316C116.206 11.767 118.04 11.748 119.999 12.256L120 12.178Z" fill="url(#paint47_radial_1_2)"/>
		<path d="M120 12.149C117.93 11.58 115.995 11.584 114.223 12.165C107.679 14.312 104.614 23.816 102.782 29.494C102.47 30.46 102.201 31.295 101.95 31.988C101.723 32.616 101.404 32.947 100.974 32.999C99.538 33.175 97.093 30.255 94.262 26.875C92.818 25.15 91.324 23.367 89.812 21.812C87.238 19.159 85.262 17.855 83.593 17.708C82.867 17.644 82.197 17.811 81.602 18.203C79.315 19.708 78.702 27.335 78.052 35.409C77.312 44.608 76.547 54.12 73.181 54.383C73.045 54.394 72.911 54.399 72.778 54.399C66.15 54.398 62.033 41.49 58.05 29C56.869 25.296 55.648 21.467 54.389 18.086C51.651 10.727 49.208 6.87 46.469 5.58C45.065 4.919 43.513 4.93 41.725 5.615C40.139 6.224 38.4 7.354 36.408 9.07C32.711 12.257 28.663 17.059 24.748 21.703C24.311 22.221 23.874 22.74 23.437 23.257C19.835 27.524 16.023 31.937 12.505 34.904C8.617 38.182 5.489 39.348 2.94 38.47C1.963 38.133 0.985 37.766 0 37.375V37.456C0.973 37.841 1.938 38.203 2.902 38.535C3.479 38.734 4.073 38.829 4.682 38.829C9.93 38.829 16.35 31.779 23.513 23.296C23.95 22.779 24.387 22.26 24.824 21.742C28.737 17.1 32.784 12.3 36.476 9.118C38.459 7.408 40.19 6.284 41.765 5.68C43.523 5.006 45.046 4.994 46.422 5.642C49.905 7.282 52.463 13.165 54.301 18.106C55.559 21.486 56.78 25.315 57.961 29.018C59.985 35.366 62.079 41.931 64.5 46.747C65.806 49.345 67.095 51.228 68.442 52.505C69.834 53.825 71.253 54.471 72.768 54.471C72.908 54.471 73.05 54.465 73.192 54.454C76.636 54.185 77.404 44.642 78.146 35.413C78.794 27.355 79.406 19.744 81.663 18.258C82.238 17.879 82.884 17.717 83.585 17.779C85.228 17.923 87.184 19.218 89.741 21.855C91.251 23.408 92.743 25.19 94.187 26.914C97.035 30.315 99.492 33.252 100.989 33.07C101.458 33.013 101.801 32.666 102.039 32.007C102.29 31.313 102.559 30.478 102.871 29.511C104.699 23.846 107.757 14.365 114.259 12.231C116.017 11.654 117.941 11.653 120 12.225V12.149Z" fill="url(#paint48_radial_1_2)"/>
		<path d="M120 12.124C117.832 11.489 115.81 11.473 113.965 12.081C107.328 14.268 104.265 23.98 102.436 29.782C102.129 30.757 101.863 31.598 101.616 32.298C101.394 32.936 101.078 33.272 100.65 33.325C99.21 33.501 96.739 30.518 93.875 27.062C92.406 25.289 90.886 23.455 89.348 21.856C86.732 19.131 84.725 17.791 83.031 17.64C82.299 17.574 81.624 17.742 81.026 18.137C78.732 19.649 78.144 27.412 77.522 35.63C76.813 44.997 76.079 54.683 72.694 54.926C65.857 55.412 61.756 42.043 57.789 29.111C56.616 25.288 55.404 21.336 54.148 17.853C51.449 10.367 49.021 6.447 46.275 5.144C44.874 4.479 43.323 4.5 41.534 5.207C39.947 5.835 38.205 6.99501 36.21 8.75301C32.506 12.017 28.445 16.926 24.518 21.674C24.069 22.217 23.619 22.761 23.17 23.302C19.557 27.661 15.734 32.17 12.195 35.208C8.297 38.553 5.162 39.742 2.613 38.842C1.744 38.536 0.875 38.205 0 37.855V37.936C0.862 38.28 1.719 38.606 2.573 38.908C3.133 39.106 3.719 39.205 4.335 39.205C6.568 39.205 9.181 37.9 12.261 35.257C15.805 32.215 19.631 27.703 23.245 23.342C23.694 22.8 24.144 22.257 24.593 21.714C28.518 16.969 32.577 12.062 36.277 8.802C38.265 7.051 39.997 5.896 41.574 5.273C43.333 4.577 44.855 4.556 46.227 5.207C48.951 6.5 51.367 10.407 54.059 17.874C55.314 21.355 56.526 25.307 57.699 29.129C59.676 35.574 61.721 42.239 64.1 47.132C65.383 49.771 66.655 51.688 67.987 52.99C69.376 54.348 70.797 55.012 72.319 55.012C72.446 55.012 72.573 55.007 72.701 54.998C76.166 54.75 76.901 45.032 77.613 35.634C78.234 27.432 78.82 19.684 81.084 18.192C81.663 17.81 82.314 17.648 83.02 17.711C84.688 17.86 86.675 19.191 89.275 21.899C90.811 23.496 92.33 25.329 93.798 27.101C96.595 30.476 99.021 33.404 100.529 33.404C100.575 33.404 100.619 33.401 100.663 33.396C101.131 33.338 101.471 32.985 101.704 32.317C101.951 31.617 102.217 30.774 102.525 29.799C104.35 24.01 107.406 14.321 114 12.147C115.831 11.544 117.842 11.563 120 12.201V12.124Z" fill="url(#paint49_radial_1_2)"/>
		<path d="M120 12.104C117.731 11.4 115.618 11.363 113.697 11.999C106.942 14.237 103.889 24.189 102.064 30.135C101.77 31.092 101.517 31.918 101.281 32.608C101.065 33.246 100.741 33.597 100.319 33.649C100.278 33.654 100.237 33.657 100.195 33.657C98.739 33.657 96.3 30.682 93.489 27.253C91.994 25.43 90.448 23.544 88.883 21.899C86.225 19.103 84.187 17.728 82.467 17.571C81.729 17.504 81.05 17.672 80.447 18.07C78.146 19.589 77.584 27.488 76.989 35.851C76.31 45.386 75.609 55.246 72.204 55.469C72.095 55.476 71.988 55.479 71.881 55.479C65.294 55.479 61.37 42.198 57.574 29.348C56.396 25.361 55.179 21.239 53.906 17.618C52.68 14.089 51.518 11.384 50.354 9.35C48.976 6.941 47.577 5.422 46.079 4.705C44.681 4.036 43.131 4.066 41.341 4.797C39.753 5.445 38.009 6.634 36.009 8.434C32.297 11.775 28.223 16.792 24.284 21.643C23.823 22.211 23.361 22.779 22.9 23.345C19.277 27.796 15.442 32.401 11.882 35.51C7.973 38.923 4.833 40.135 2.282 39.213C1.524 38.94 0.764 38.647 0 38.339V38.42C0.751 38.723 1.499 39.011 2.244 39.28C2.806 39.483 3.395 39.585 4.013 39.585C6.248 39.585 8.865 38.254 11.95 35.56C15.514 32.447 19.352 27.839 22.977 23.386C23.438 22.82 23.9 22.251 24.361 21.683C28.299 16.834 32.37 11.82 36.078 8.483C38.07 6.69 39.805 5.506 41.383 4.862C43.143 4.144 44.663 4.114 46.032 4.768C48.781 6.083 51.182 10.052 53.817 17.638C55.089 21.258 56.306 25.379 57.484 29.365C59.409 35.881 61.399 42.619 63.73 47.563C64.986 50.229 66.235 52.167 67.548 53.487C68.928 54.875 70.345 55.553 71.87 55.553C71.983 55.553 72.097 55.549 72.211 55.542C75.696 55.315 76.4 45.423 77.081 35.856C77.675 27.509 78.236 19.625 80.507 18.127C81.09 17.742 81.747 17.579 82.458 17.644C84.151 17.798 86.17 19.165 88.811 21.944C90.375 23.587 91.92 25.472 93.413 27.294C96.239 30.741 98.69 33.731 100.202 33.731C100.247 33.731 100.292 33.728 100.335 33.723C100.803 33.665 101.142 33.307 101.371 32.629C101.608 31.938 101.861 31.111 102.155 30.154C103.975 24.221 107.022 14.292 113.734 12.068C115.641 11.436 117.742 11.477 120.001 12.184L120 12.104Z" fill="url(#paint50_radial_1_2)"/>
		<path d="M120 12.086C117.628 11.31 115.425 11.252 113.43 11.917C106.556 14.207 103.513 24.401 101.694 30.491C101.414 31.429 101.172 32.239 100.947 32.918C100.733 33.566 100.411 33.921 99.989 33.974C98.546 34.155 96.024 31.046 93.103 27.445C91.583 25.571 90.011 23.634 88.417 21.942C85.717 19.074 83.648 17.663 81.903 17.501C81.16 17.432 80.476 17.601 79.868 18.003C77.56 19.529 77.024 27.565 76.456 36.073C75.808 45.778 75.138 55.813 71.713 56.011C64.95 56.418 61.05 42.683 57.28 29.401C56.12 25.315 54.921 21.09 53.663 17.385C52.451 13.795 51.299 11.044 50.142 8.97701C48.773 6.53001 47.38 4.99001 45.884 4.26801C44.508 3.60501 42.915 3.64501 41.148 4.38801C39.559 5.05601 37.813 6.27501 35.808 8.11701C32.088 11.536 28.002 16.66 24.05 21.615C23.577 22.208 23.104 22.801 22.632 23.391C19 27.932 15.153 32.632 11.574 35.812C7.656 39.292 4.51 40.526 1.956 39.587C1.305 39.345 0.654 39.089 0 38.822V38.904C0.641 39.165 1.279 39.416 1.916 39.652C2.479 39.859 3.068 39.963 3.688 39.963C5.927 39.963 8.549 38.606 11.642 35.86C15.226 32.677 19.075 27.974 22.709 23.43C23.182 22.839 23.655 22.246 24.127 21.653C28.077 16.7 32.161 11.578 35.877 8.16401C37.874 6.32901 39.611 5.11501 41.19 4.45201C42.951 3.71201 44.47 3.67301 45.835 4.33001C48.582 5.65401 50.968 9.68601 53.574 17.403C54.831 21.107 56.03 25.331 57.19 29.416C59.071 36.043 61.016 42.895 63.31 47.93C64.547 50.645 65.781 52.62 67.082 53.968C68.459 55.396 69.878 56.093 71.41 56.093C71.512 56.093 71.615 56.09 71.718 56.084C75.224 55.881 75.896 45.814 76.546 36.077C77.113 27.585 77.648 19.564 79.926 18.059C80.514 17.67 81.175 17.507 81.891 17.574C83.609 17.734 85.659 19.136 88.342 21.986C89.933 23.676 91.505 25.612 93.024 27.485C95.878 31.003 98.354 34.054 99.87 34.054C99.915 34.054 99.959 34.051 100.002 34.046C100.47 33.987 100.808 33.624 101.034 32.937C101.26 32.256 101.501 31.446 101.782 30.508C103.596 24.431 106.633 14.26 113.464 11.984C115.446 11.324 117.637 11.386 119.999 12.165L120 12.086Z" fill="url(#paint51_radial_1_2)"/>
		<path d="M120 12.072C117.526 11.222 115.232 11.141 113.162 11.835C110.086 12.865 107.509 15.514 105.283 19.933C103.422 23.627 102.209 27.802 101.324 30.85C101.057 31.767 100.827 32.56 100.613 33.229C100.402 33.886 100.081 34.247 99.659 34.3C98.213 34.48 95.668 31.311 92.718 27.64C89.037 23.058 84.865 17.865 81.443 17.446C80.655 17.35 79.93 17.515 79.291 17.939C76.976 19.471 76.465 27.643 75.924 36.295C75.307 46.167 74.668 56.375 71.225 56.556C71.141 56.56 71.057 56.563 70.974 56.563C64.383 56.563 60.623 42.78 56.986 29.447C55.426 23.729 53.814 17.817 52.011 13.176C49.962 7.90001 47.953 4.93101 45.691 3.83301C44.318 3.16601 42.726 3.21601 40.957 3.98001C39.367 4.66701 37.618 5.91701 35.609 7.80001C31.88 11.296 27.781 16.527 23.817 21.587C19.846 26.655 15.74 31.895 11.944 35.49C9.902 37.424 8.115 38.735 6.481 39.499C4.655 40.353 3.068 40.503 1.63 39.96C1.086 39.754 0.544 39.54 0 39.317V39.398C0.531 39.615 1.059 39.824 1.587 40.023C3.055 40.578 4.67 40.426 6.525 39.559C8.168 38.791 9.963 37.474 12.012 35.534C15.812 31.935 19.92 26.693 23.893 21.623C27.855 16.566 31.953 11.337 35.677 7.84501C37.678 5.96901 39.419 4.72401 40.998 4.04101C42.76 3.27901 44.278 3.23001 45.64 3.89201C47.852 4.96601 49.906 8.00901 51.921 13.195C53.723 17.833 55.335 23.744 56.894 29.46C58.731 36.196 60.631 43.161 62.89 48.286C64.108 51.049 65.327 53.063 66.617 54.442C67.995 55.915 69.419 56.634 70.963 56.634C71.051 56.634 71.14 56.632 71.229 56.627C74.754 56.441 75.395 46.201 76.014 36.297C76.554 27.662 77.064 19.505 79.349 17.993C79.968 17.583 80.667 17.423 81.428 17.516C84.809 17.93 88.969 23.109 92.64 27.678C95.523 31.266 98.023 34.379 99.542 34.379C99.586 34.379 99.63 34.376 99.673 34.371C100.141 34.312 100.477 33.944 100.701 33.246C100.916 32.576 101.146 31.784 101.413 30.866C103.221 24.644 106.247 14.229 113.198 11.901C115.255 11.212 117.536 11.297 120.001 12.15L120 12.072Z" fill="url(#paint52_radial_1_2)"/>
		<rect width="120" height="60" fill="black" fill-opacity="0.45"/>
	</g>
	<defs>
		<radialGradient id="paint0_radial_1_2" cx="0" cy="0" r="1" gradientUnits="userSpaceOnUse" gradientTransform="translate(0.366697 28.6778) scale(116.817)">
			<stop stop-color="#184D45"/>
			<stop offset="1"/>
		</radialGradient>
		<radialGradient id="paint1_radial_1_2" cx="0" cy="0" r="1" gradientUnits="userSpaceOnUse" gradientTransform="translate(63.5115 23.6766) scale(47.484 37.4824)">
			<stop stop-color="#27AAE1"/>
			<stop offset="1" stop-color="#39B54A"/>
		</radialGradient>
		<radialGradient id="paint2_radial_1_2" cx="0" cy="0" r="1" gradientUnits="userSpaceOnUse" gradientTransform="translate(63.1191 23.8049) rotate(-0.0416545) scale(47.6776 37.6343)">
			<stop stop-color="#27AADE"/>
			<stop offset="1" stop-color="#39B54D"/>
		</radialGradient>
		<radialGradient id="paint3_radial_1_2" cx="0" cy="0" r="1" gradientUnits="userSpaceOnUse" gradientTransform="translate(62.7268 23.9519) rotate(-0.0885158) scale(47.8723 37.788)">
			<stop stop-color="#28AADB"/>
			<stop offset="1" stop-color="#38B550"/>
		</radialGradient>
		<radialGradient id="paint4_radial_1_2" cx="0" cy="0" r="1" gradientUnits="userSpaceOnUse" gradientTransform="translate(62.3352 24.108) rotate(-0.13017) scale(48.0699 37.9441)">
			<stop stop-color="#28ABD8"/>
			<stop offset="1" stop-color="#38B453"/>
		</radialGradient>
		<radialGradient id="paint5_radial_1_2" cx="0" cy="0" r="1" gradientUnits="userSpaceOnUse" gradientTransform="translate(61.9437 24.2866) rotate(-0.177031) scale(48.2704 38.1024)">
			<stop stop-color="#28ABD5"/>
			<stop offset="1" stop-color="#38B456"/>
		</radialGradient>
		<radialGradient id="paint6_radial_1_2" cx="0" cy="0" r="1" gradientUnits="userSpaceOnUse" gradientTransform="translate(61.5528 24.4636) rotate(-0.218705) scale(48.4716 38.2649)">
			<stop stop-color="#29ABD2"/>
			<stop offset="1" stop-color="#37B459"/>
		</radialGradient>
		<radialGradient id="paint7_radial_1_2" cx="0" cy="0" r="1" gradientUnits="userSpaceOnUse" gradientTransform="translate(61.1625 24.6577) rotate(-0.260363) scale(48.6767 38.4225)">
			<stop stop-color="#29ABCF"/>
			<stop offset="1" stop-color="#37B45C"/>
		</radialGradient>
		<radialGradient id="paint8_radial_1_2" cx="0" cy="0" r="1" gradientUnits="userSpaceOnUse" gradientTransform="translate(60.7724 24.8594) rotate(-0.307227) scale(48.882 38.5847)">
			<stop stop-color="#29ACCC"/>
			<stop offset="1" stop-color="#37B35F"/>
		</radialGradient>
		<radialGradient id="paint9_radial_1_2" cx="0" cy="0" r="1" gradientUnits="userSpaceOnUse" gradientTransform="translate(60.3831 25.064) rotate(-0.348884) scale(49.0896 38.7488)">
			<stop stop-color="#2AACC9"/>
			<stop offset="1" stop-color="#36B362"/>
		</radialGradient>
		<radialGradient id="paint10_radial_1_2" cx="0" cy="0" r="1" gradientUnits="userSpaceOnUse" gradientTransform="translate(60.0463 25.2747) rotate(-0.390576) scale(49.2573 38.8849)">
			<stop stop-color="#2AACC6"/>
			<stop offset="1" stop-color="#36B365"/>
		</radialGradient>
		<radialGradient id="paint11_radial_1_2" cx="0" cy="0" r="1" gradientUnits="userSpaceOnUse" gradientTransform="translate(59.6059 25.5009) rotate(-0.437443) scale(49.5086 39.0835)">
			<stop stop-color="#2BACC3"/>
			<stop offset="1" stop-color="#35B368"/>
		</radialGradient>
		<radialGradient id="paint12_radial_1_2" cx="0" cy="0" r="1" gradientUnits="userSpaceOnUse" gradientTransform="translate(59.2184 25.7192) rotate(-0.479103) scale(49.7208 39.2468)">
			<stop stop-color="#2BACC0"/>
			<stop offset="1" stop-color="#35B36B"/>
		</radialGradient>
		<radialGradient id="paint13_radial_1_2" cx="0" cy="0" r="1" gradientUnits="userSpaceOnUse" gradientTransform="translate(58.831 25.9478) rotate(-0.525969) scale(49.934 39.4154)">
			<stop stop-color="#2BADBD"/>
			<stop offset="1" stop-color="#35B26E"/>
		</radialGradient>
		<radialGradient id="paint14_radial_1_2" cx="0" cy="0" r="1" gradientUnits="userSpaceOnUse" gradientTransform="translate(58.4446 26.1759) rotate(-0.567679) scale(50.1491 39.5892)">
			<stop stop-color="#2CADBB"/>
			<stop offset="1" stop-color="#34B270"/>
		</radialGradient>
		<radialGradient id="paint15_radial_1_2" cx="0" cy="0" r="1" gradientUnits="userSpaceOnUse" gradientTransform="translate(58.0589 26.4074) rotate(-0.60934) scale(50.3662 39.761)">
			<stop stop-color="#2CADB8"/>
			<stop offset="1" stop-color="#34B273"/>
		</radialGradient>
		<radialGradient id="paint16_radial_1_2" cx="0" cy="0" r="1" gradientUnits="userSpaceOnUse" gradientTransform="translate(57.6734 26.6483) rotate(-0.656209) scale(50.5831 39.9325)">
			<stop stop-color="#2CADB5"/>
			<stop offset="1" stop-color="#34B276"/>
		</radialGradient>
		<radialGradient id="paint17_radial_1_2" cx="0" cy="0" r="1" gradientUnits="userSpaceOnUse" gradientTransform="translate(57.2887 26.8863) rotate(-0.697869) scale(50.8022 40.1014)">
			<stop stop-color="#2DADB2"/>
			<stop offset="1" stop-color="#33B279"/>
		</radialGradient>
		<radialGradient id="paint18_radial_1_2" cx="0" cy="0" r="1" gradientUnits="userSpaceOnUse" gradientTransform="translate(56.9044 27.1265) rotate(-0.739595) scale(51.0224 40.2793)">
			<stop stop-color="#2DAEAF"/>
			<stop offset="1" stop-color="#33B17C"/>
		</radialGradient>
		<radialGradient id="paint19_radial_1_2" cx="0" cy="0" r="1" gradientUnits="userSpaceOnUse" gradientTransform="translate(56.5213 27.3753) rotate(-0.786465) scale(51.2428 40.4538)">
			<stop stop-color="#2DAEAC"/>
			<stop offset="1" stop-color="#33B17F"/>
		</radialGradient>
		<radialGradient id="paint20_radial_1_2" cx="0" cy="0" r="1" gradientUnits="userSpaceOnUse" gradientTransform="translate(56.1387 27.6186) rotate(-0.828127) scale(51.4661 40.6307)">
			<stop stop-color="#2EAEA9"/>
			<stop offset="1" stop-color="#32B182"/>
		</radialGradient>
		<radialGradient id="paint21_radial_1_2" cx="0" cy="0" r="1" gradientUnits="userSpaceOnUse" gradientTransform="translate(55.7562 27.8678) rotate(-0.874995) scale(51.6893 40.8074)">
			<stop stop-color="#2EAEA6"/>
			<stop offset="1" stop-color="#32B185"/>
		</radialGradient>
		<radialGradient id="paint22_radial_1_2" cx="0" cy="0" r="1" gradientUnits="userSpaceOnUse" gradientTransform="translate(55.375 28.1147) rotate(-0.916738) scale(51.9149 40.9851)">
			<stop stop-color="#2EAFA3"/>
			<stop offset="1" stop-color="#32B088"/>
		</radialGradient>
		<radialGradient id="paint23_radial_1_2" cx="0" cy="0" r="1" gradientUnits="userSpaceOnUse" gradientTransform="translate(54.9943 28.3634) rotate(-0.9584) scale(52.1412 41.1644)">
			<stop stop-color="#2FAFA0"/>
			<stop offset="1" stop-color="#31B08B"/>
		</radialGradient>
		<radialGradient id="paint24_radial_1_2" cx="0" cy="0" r="1" gradientUnits="userSpaceOnUse" gradientTransform="translate(54.6138 28.6167) rotate(-1.00527) scale(52.368 41.3441)">
			<stop stop-color="#2FAF9D"/>
			<stop offset="1" stop-color="#31B08E"/>
		</radialGradient>
		<radialGradient id="paint25_radial_1_2" cx="0" cy="0" r="1" gradientUnits="userSpaceOnUse" gradientTransform="translate(54.2317 28.7698) rotate(-1.04702) scale(52.6168 41.545)">
			<stop stop-color="#2FAF9A"/>
			<stop offset="1" stop-color="#31B091"/>
		</radialGradient>
		<radialGradient id="paint26_radial_1_2" cx="0" cy="0" r="1" gradientUnits="userSpaceOnUse" gradientTransform="translate(53.8463 28.832) rotate(-1.08869) scale(52.8875 41.7594)">
			<stop stop-color="#30AF97"/>
			<stop offset="1" stop-color="#30B094"/>
		</radialGradient>
		<radialGradient id="paint27_radial_1_2" cx="0" cy="0" r="1" gradientUnits="userSpaceOnUse" gradientTransform="translate(53.462 28.8932) rotate(-1.13556) scale(53.1629 41.9728)">
			<stop stop-color="#30B094"/>
			<stop offset="1" stop-color="#30AF97"/>
		</radialGradient>
		<radialGradient id="paint28_radial_1_2" cx="0" cy="0" r="1" gradientUnits="userSpaceOnUse" gradientTransform="translate(53.0779 28.9577) rotate(-1.17722) scale(53.4395 42.192)">
			<stop stop-color="#31B091"/>
			<stop offset="1" stop-color="#2FAF9A"/>
		</radialGradient>
		<radialGradient id="paint29_radial_1_2" cx="0" cy="0" r="1" gradientUnits="userSpaceOnUse" gradientTransform="translate(52.693 29.0219) rotate(-1.22419) scale(53.7188 42.4171)">
			<stop stop-color="#31B08E"/>
			<stop offset="1" stop-color="#2FAF9D"/>
		</radialGradient>
		<radialGradient id="paint30_radial_1_2" cx="0" cy="0" r="1" gradientUnits="userSpaceOnUse" gradientTransform="translate(52.3092 29.0859) rotate(-1.26586) scale(54.0016 42.6413)">
			<stop stop-color="#31B08B"/>
			<stop offset="1" stop-color="#2FAFA0"/>
		</radialGradient>
		<radialGradient id="paint31_radial_1_2" cx="0" cy="0" r="1" gradientUnits="userSpaceOnUse" gradientTransform="translate(51.9246 29.1452) rotate(-1.30752) scale(54.2875 42.8679)">
			<stop stop-color="#32B088"/>
			<stop offset="1" stop-color="#2EAFA3"/>
		</radialGradient>
		<radialGradient id="paint32_radial_1_2" cx="0" cy="0" r="1" gradientUnits="userSpaceOnUse" gradientTransform="translate(51.541 29.2093) rotate(-1.35438) scale(54.5772 43.0926)">
			<stop stop-color="#32B185"/>
			<stop offset="1" stop-color="#2EAEA6"/>
		</radialGradient>
		<radialGradient id="paint33_radial_1_2" cx="0" cy="0" r="1" gradientUnits="userSpaceOnUse" gradientTransform="translate(51.1576 29.2727) rotate(-1.39616) scale(54.8674 43.3267)">
			<stop stop-color="#32B182"/>
			<stop offset="1" stop-color="#2EAEA9"/>
		</radialGradient>
		<radialGradient id="paint34_radial_1_2" cx="0" cy="0" r="1" gradientUnits="userSpaceOnUse" gradientTransform="translate(50.7737 29.3367) rotate(-1.43782) scale(55.1605 43.5591)">
			<stop stop-color="#33B17F"/>
			<stop offset="1" stop-color="#2DAEAC"/>
		</radialGradient>
		<radialGradient id="paint35_radial_1_2" cx="0" cy="0" r="1" gradientUnits="userSpaceOnUse" gradientTransform="translate(50.3906 29.4015) rotate(-1.48469) scale(55.4569 43.7942)">
			<stop stop-color="#33B17C"/>
			<stop offset="1" stop-color="#2DAEAF"/>
		</radialGradient>
		<radialGradient id="paint36_radial_1_2" cx="0" cy="0" r="1" gradientUnits="userSpaceOnUse" gradientTransform="translate(50.0071 29.4655) rotate(-1.52635) scale(55.7559 44.0263)">
			<stop stop-color="#33B279"/>
			<stop offset="1" stop-color="#2DADB2"/>
		</radialGradient>
		<radialGradient id="paint37_radial_1_2" cx="0" cy="0" r="1" gradientUnits="userSpaceOnUse" gradientTransform="translate(49.6244 29.5307) rotate(-1.57335) scale(56.0568 44.269)">
			<stop stop-color="#34B276"/>
			<stop offset="1" stop-color="#2CADB5"/>
		</radialGradient>
		<radialGradient id="paint38_radial_1_2" cx="0" cy="0" r="1" gradientUnits="userSpaceOnUse" gradientTransform="translate(49.2418 29.5951) rotate(-1.61501) scale(56.361 44.5105)">
			<stop stop-color="#34B273"/>
			<stop offset="1" stop-color="#2CADB8"/>
		</radialGradient>
		<radialGradient id="paint39_radial_1_2" cx="0" cy="0" r="1" gradientUnits="userSpaceOnUse" gradientTransform="translate(48.8588 29.6595) rotate(-1.65666) scale(56.6662 44.7526)">
			<stop stop-color="#34B270"/>
			<stop offset="1" stop-color="#2CADBB"/>
		</radialGradient>
		<radialGradient id="paint40_radial_1_2" cx="0" cy="0" r="1" gradientUnits="userSpaceOnUse" gradientTransform="translate(48.4766 29.7254) rotate(-1.70352) scale(56.9751 44.9978)">
			<stop stop-color="#35B26E"/>
			<stop offset="1" stop-color="#2BADBD"/>
		</radialGradient>
		<radialGradient id="paint41_radial_1_2" cx="0" cy="0" r="1" gradientUnits="userSpaceOnUse" gradientTransform="translate(48.0945 29.7902) rotate(-1.74533) scale(57.2863 45.2438)">
			<stop stop-color="#35B36B"/>
			<stop offset="1" stop-color="#2BACC0"/>
		</radialGradient>
		<radialGradient id="paint42_radial_1_2" cx="0" cy="0" r="1" gradientUnits="userSpaceOnUse" gradientTransform="translate(47.7122 29.8563) rotate(-1.79219) scale(57.5988 45.4918)">
			<stop stop-color="#35B368"/>
			<stop offset="1" stop-color="#2BACC3"/>
		</radialGradient>
		<radialGradient id="paint43_radial_1_2" cx="0" cy="0" r="1" gradientUnits="userSpaceOnUse" gradientTransform="translate(47.3304 29.9214) rotate(-1.83384) scale(57.9135 45.7418)">
			<stop stop-color="#36B365"/>
			<stop offset="1" stop-color="#2AACC6"/>
		</radialGradient>
		<radialGradient id="paint44_radial_1_2" cx="0" cy="0" r="1" gradientUnits="userSpaceOnUse" gradientTransform="translate(46.9485 29.9867) rotate(-1.87566) scale(58.2297 45.9969)">
			<stop stop-color="#36B362"/>
			<stop offset="1" stop-color="#2AACC9"/>
		</radialGradient>
		<radialGradient id="paint45_radial_1_2" cx="0" cy="0" r="1" gradientUnits="userSpaceOnUse" gradientTransform="translate(46.567 30.0532) rotate(-1.92251) scale(58.5498 46.2513)">
			<stop stop-color="#37B35F"/>
			<stop offset="1" stop-color="#29ACCC"/>
		</radialGradient>
		<radialGradient id="paint46_radial_1_2" cx="0" cy="0" r="1" gradientUnits="userSpaceOnUse" gradientTransform="translate(46.1858 30.1188) rotate(-1.96416) scale(58.8722 46.5021)">
			<stop stop-color="#37B45C"/>
			<stop offset="1" stop-color="#29ABCF"/>
		</radialGradient>
		<radialGradient id="paint47_radial_1_2" cx="0" cy="0" r="1" gradientUnits="userSpaceOnUse" gradientTransform="translate(45.8044 30.1845) rotate(-2.00581) scale(59.1952 46.7587)">
			<stop stop-color="#37B459"/>
			<stop offset="1" stop-color="#29ABD2"/>
		</radialGradient>
		<radialGradient id="paint48_radial_1_2" cx="0" cy="0" r="1" gradientUnits="userSpaceOnUse" gradientTransform="translate(45.4235 30.2514) rotate(-2.05285) scale(59.52 47.0211)">
			<stop stop-color="#38B456"/>
			<stop offset="1" stop-color="#28ABD5"/>
		</radialGradient>
		<radialGradient id="paint49_radial_1_2" cx="0" cy="0" r="1" gradientUnits="userSpaceOnUse" gradientTransform="translate(45.0425 30.3173) rotate(-2.09449) scale(59.8467 47.2806)">
			<stop stop-color="#38B453"/>
			<stop offset="1" stop-color="#28ABD8"/>
		</radialGradient>
		<radialGradient id="paint50_radial_1_2" cx="0" cy="0" r="1" gradientUnits="userSpaceOnUse" gradientTransform="translate(44.662 30.3845) rotate(-2.14134) scale(60.1765 47.5428)">
			<stop stop-color="#38B550"/>
			<stop offset="1" stop-color="#28AADB"/>
		</radialGradient>
		<radialGradient id="paint51_radial_1_2" cx="0" cy="0" r="1" gradientUnits="userSpaceOnUse" gradientTransform="translate(44.2818 30.4542) rotate(-2.18298) scale(60.5077 47.8008)">
			<stop stop-color="#39B54D"/>
			<stop offset="1" stop-color="#27AADE"/>
		</radialGradient>
		<radialGradient id="paint52_radial_1_2" cx="0" cy="0" r="1" gradientUnits="userSpaceOnUse" gradientTransform="translate(43.9014 30.5204) rotate(-2.22482) scale(60.8395 48.0689)">
			<stop stop-color="#39B54A"/>
			<stop offset="1" stop-color="#27AAE1"/>
		</radialGradient>
		<clipPath id="clip0_1_2">
			<rect width="120" height="60" fill="white"/>
		</clipPath>
	</defs>
</svg>
