<?xml version="1.0" encoding="utf-8"?>
<!-- Generator: Adobe Illustrator 26.0.1, SVG Export Plug-In . SVG Version: 6.00 Build 0)  -->
<svg version="1.1" id="Слой_1" xmlns="http://www.w3.org/2000/svg" xmlns:xlink="http://www.w3.org/1999/xlink" x="0px" y="0px"
	 viewBox="0 0 200 200" style="enable-background:new 0 0 200 200;" xml:space="preserve">
<style type="text/css">
	.st0{fill:#1A1A1A;}
	.st1{fill:#00FF55;}
</style>
<path class="st0" d="M168.38,200H31.62C14.16,200,0,185.84,0,168.38V31.62C0,14.16,14.16,0,31.62,0h136.76
	C185.84,0,200,14.16,200,31.62v136.76C200,185.84,185.84,200,168.38,200z"/>
<rect x="45.37" y="30.69" class="st1" width="112.63" height="22.53"/>
<rect x="45.37" y="146.32" class="st1" width="112.63" height="22.53"/>
<path class="st1" d="M108.24,102.05c0.45-1.33,1.58-2.39,3.4-2.39c0.06,0,0.11,0.01,0.16,0.01c0,0,0-0.01,0.01-0.01L72.95,53.22
	H57.5l42.73,51.06h6.86c0.02-0.12,0.03-0.23,0.06-0.34C107.34,103.13,107.73,102.51,108.24,102.05z"/>
<path class="st1" d="M110.2,97.98c-0.08-0.13-0.16-0.28-0.24-0.43c0,0,0,0,0,0c-0.08-0.08-0.17-0.18-0.26-0.24
	c-0.37-0.28-0.76-0.55-1.08-0.87c-0.52-0.53-0.98-1.2-1.23-1.92h-6.75l-42.73,51.06h15.45l38.45-45.95
	C111.16,99.23,110.62,98.64,110.2,97.98z"/>
<polygon class="st1" points="67.89,53.22 106.95,99.77 84.42,99.77 45.36,53.22 "/>
<polygon class="st1" points="73.43,53.22 112.49,99.77 89.97,99.77 50.91,53.22 "/>
<polygon class="st1" points="89.74,99.77 50.67,146.32 73.2,146.32 112.26,99.77 "/>
<polygon class="st1" points="84.19,99.77 45.13,146.32 67.66,146.32 106.72,99.77 "/>
<polygon class="st1" points="118.11,58.15 153.04,99.77 132.9,99.77 97.97,58.15 "/>
<polygon class="st1" points="123.07,58.15 158,99.77 137.86,99.77 102.93,58.15 "/>
<polygon class="st1" points="137.65,99.77 102.72,141.4 122.86,141.4 157.79,99.77 "/>
<polygon class="st1" points="132.69,99.77 97.77,141.4 117.91,141.4 152.84,99.77 "/>
<polygon class="st1" points="112.12,45.12 147.05,86.75 126.91,86.75 91.98,45.12 "/>
<polygon class="st1" points="108.32,46.4 143.25,88.03 123.11,88.03 88.18,46.4 "/>
<polygon class="st1" points="126.86,112.48 91.93,154.1 112.07,154.1 147,112.48 "/>
<polygon class="st1" points="114.1,122.24 79.17,163.86 99.31,163.86 134.24,122.24 "/>
</svg>
